<svg xmlns="http://www.w3.org/2000/svg" xmlns:xlink="http://www.w3.org/1999/xlink" width="800" zoomAndPan="magnify" viewBox="0 0 600 119.999999" height="160" preserveAspectRatio="xMidYMid meet" version="1.0"><defs><g/></defs><g fill="#b4b4b4" fill-opacity="1"><g transform="translate(125.076559, 62.750001)"><g><path d="M 2.59375 -24.4375 C 2.59375 -29.1875 3.695312 -33.453125 5.90625 -37.234375 C 8.125 -41.015625 11.132812 -43.96875 14.9375 -46.09375 C 18.75 -48.21875 22.914062 -49.28125 27.4375 -49.28125 C 32.613281 -49.28125 37.21875 -48.007812 41.25 -45.46875 C 45.289062 -42.925781 48.222656 -39.320312 50.046875 -34.65625 L 40.453125 -34.65625 C 39.191406 -37.21875 37.441406 -39.128906 35.203125 -40.390625 C 32.960938 -41.648438 30.375 -42.28125 27.4375 -42.28125 C 24.21875 -42.28125 21.347656 -41.554688 18.828125 -40.109375 C 16.304688 -38.660156 14.332031 -36.582031 12.90625 -33.875 C 11.488281 -31.164062 10.78125 -28.019531 10.78125 -24.4375 C 10.78125 -20.84375 11.488281 -17.691406 12.90625 -14.984375 C 14.332031 -12.273438 16.304688 -10.1875 18.828125 -8.71875 C 21.347656 -7.25 24.21875 -6.515625 27.4375 -6.515625 C 30.375 -6.515625 32.960938 -7.144531 35.203125 -8.40625 C 37.441406 -9.664062 39.191406 -11.578125 40.453125 -14.140625 L 50.046875 -14.140625 C 48.222656 -9.472656 45.289062 -5.878906 41.25 -3.359375 C 37.21875 -0.835938 32.613281 0.421875 27.4375 0.421875 C 22.863281 0.421875 18.6875 -0.640625 14.90625 -2.765625 C 11.125 -4.890625 8.125 -7.84375 5.90625 -11.625 C 3.695312 -15.40625 2.59375 -19.675781 2.59375 -24.4375 Z M 2.59375 -24.4375 "/></g></g></g><g fill="#b4b4b4" fill-opacity="1"><g transform="translate(179.183604, 62.750001)"><g><path d="M 56.484375 -48.65625 L 56.484375 0 L 48.515625 0 L 48.515625 -33.3125 L 33.671875 0 L 28.140625 0 L 13.234375 -33.3125 L 13.234375 0 L 5.25 0 L 5.25 -48.65625 L 13.859375 -48.65625 L 30.9375 -10.5 L 47.953125 -48.65625 Z M 56.484375 -48.65625 "/></g></g></g><g fill="#ffffff" fill-opacity="1"><g transform="translate(240.928115, 62.750001)"><g><path d="M 36.328125 -49.140625 L 36.328125 -39.546875 L 16.3125 -39.546875 L 16.3125 -29.1875 L 31.296875 -29.1875 L 31.296875 -19.875 L 16.3125 -19.875 L 16.3125 0 L 4.34375 0 L 4.34375 -49.140625 Z M 36.328125 -49.140625 "/></g></g></g><g fill="#ffffff" fill-opacity="1"><g transform="translate(279.216027, 62.750001)"><g><path d="M 10.359375 -43.125 C 8.253906 -43.125 6.535156 -43.738281 5.203125 -44.96875 C 3.878906 -46.207031 3.21875 -47.738281 3.21875 -49.5625 C 3.21875 -51.425781 3.878906 -52.972656 5.203125 -54.203125 C 6.535156 -55.441406 8.253906 -56.0625 10.359375 -56.0625 C 12.410156 -56.0625 14.101562 -55.441406 15.4375 -54.203125 C 16.769531 -52.972656 17.4375 -51.425781 17.4375 -49.5625 C 17.4375 -47.738281 16.769531 -46.207031 15.4375 -44.96875 C 14.101562 -43.738281 12.410156 -43.125 10.359375 -43.125 Z M 16.3125 -39.0625 L 16.3125 0 L 4.34375 0 L 4.34375 -39.0625 Z M 16.3125 -39.0625 "/></g></g></g><g fill="#ffffff" fill-opacity="1"><g transform="translate(299.864898, 62.750001)"><g><path d="M 16.3125 -51.796875 L 16.3125 0 L 4.34375 0 L 4.34375 -51.796875 Z M 16.3125 -51.796875 "/></g></g></g><g fill="#ffffff" fill-opacity="1"><g transform="translate(320.513769, 62.750001)"><g><path d="M 10.359375 -43.125 C 8.253906 -43.125 6.535156 -43.738281 5.203125 -44.96875 C 3.878906 -46.207031 3.21875 -47.738281 3.21875 -49.5625 C 3.21875 -51.425781 3.878906 -52.972656 5.203125 -54.203125 C 6.535156 -55.441406 8.253906 -56.0625 10.359375 -56.0625 C 12.410156 -56.0625 14.101562 -55.441406 15.4375 -54.203125 C 16.769531 -52.972656 17.4375 -51.425781 17.4375 -49.5625 C 17.4375 -47.738281 16.769531 -46.207031 15.4375 -44.96875 C 14.101562 -43.738281 12.410156 -43.125 10.359375 -43.125 Z M 16.3125 -39.0625 L 16.3125 0 L 4.34375 0 L 4.34375 -39.0625 Z M 16.3125 -39.0625 "/></g></g></g><g fill="#ffffff" fill-opacity="1"><g transform="translate(341.162641, 62.750001)"><g><path d="M 28.140625 -39.484375 C 32.710938 -39.484375 36.363281 -38 39.09375 -35.03125 C 41.820312 -32.070312 43.1875 -28 43.1875 -22.8125 L 43.1875 0 L 31.296875 0 L 31.296875 -21.203125 C 31.296875 -23.816406 30.617188 -25.847656 29.265625 -27.296875 C 27.910156 -28.742188 26.085938 -29.46875 23.796875 -29.46875 C 21.515625 -29.46875 19.695312 -28.742188 18.34375 -27.296875 C 16.988281 -25.847656 16.3125 -23.816406 16.3125 -21.203125 L 16.3125 0 L 4.34375 0 L 4.34375 -39.0625 L 16.3125 -39.0625 L 16.3125 -33.875 C 17.519531 -35.601562 19.148438 -36.96875 21.203125 -37.96875 C 23.265625 -38.976562 25.578125 -39.484375 28.140625 -39.484375 Z M 28.140625 -39.484375 "/></g></g></g><g fill="#ffffff" fill-opacity="1"><g transform="translate(388.34006, 62.750001)"><g><path d="M 19.1875 -39.625 C 21.9375 -39.625 24.347656 -39.0625 26.421875 -37.9375 C 28.503906 -36.820312 30.101562 -35.351562 31.21875 -33.53125 L 31.21875 -39.0625 L 43.1875 -39.0625 L 43.1875 -0.0625 C 43.1875 3.519531 42.472656 6.769531 41.046875 9.6875 C 39.628906 12.601562 37.460938 14.925781 34.546875 16.65625 C 31.628906 18.382812 28 19.25 23.65625 19.25 C 17.875 19.25 13.1875 17.882812 9.59375 15.15625 C 6 12.425781 3.945312 8.726562 3.4375 4.0625 L 15.265625 4.0625 C 15.628906 5.550781 16.507812 6.726562 17.90625 7.59375 C 19.3125 8.457031 21.039062 8.890625 23.09375 8.890625 C 25.570312 8.890625 27.546875 8.175781 29.015625 6.75 C 30.484375 5.332031 31.21875 3.0625 31.21875 -0.0625 L 31.21875 -5.59375 C 30.050781 -3.78125 28.441406 -2.300781 26.390625 -1.15625 C 24.335938 -0.0078125 21.9375 0.5625 19.1875 0.5625 C 15.957031 0.5625 13.035156 -0.265625 10.421875 -1.921875 C 7.816406 -3.578125 5.753906 -5.929688 4.234375 -8.984375 C 2.710938 -12.046875 1.953125 -15.582031 1.953125 -19.59375 C 1.953125 -23.613281 2.710938 -27.140625 4.234375 -30.171875 C 5.753906 -33.203125 7.816406 -35.535156 10.421875 -37.171875 C 13.035156 -38.804688 15.957031 -39.625 19.1875 -39.625 Z M 31.21875 -19.53125 C 31.21875 -22.519531 30.390625 -24.875 28.734375 -26.59375 C 27.078125 -28.320312 25.0625 -29.1875 22.6875 -29.1875 C 20.300781 -29.1875 18.28125 -28.332031 16.625 -26.625 C 14.96875 -24.925781 14.140625 -22.582031 14.140625 -19.59375 C 14.140625 -16.613281 14.96875 -14.25 16.625 -12.5 C 18.28125 -10.75 20.300781 -9.875 22.6875 -9.875 C 25.0625 -9.875 27.078125 -10.734375 28.734375 -12.453125 C 30.390625 -14.179688 31.21875 -16.539062 31.21875 -19.53125 Z M 31.21875 -19.53125 "/></g></g></g><g fill="#ffffff" fill-opacity="1"><g transform="translate(435.867451, 62.750001)"><g><path d="M 20.234375 0.5625 C 16.828125 0.5625 13.789062 -0.0195312 11.125 -1.1875 C 8.46875 -2.351562 6.367188 -3.953125 4.828125 -5.984375 C 3.285156 -8.015625 2.421875 -10.289062 2.234375 -12.8125 L 14.0625 -12.8125 C 14.207031 -11.457031 14.835938 -10.359375 15.953125 -9.515625 C 17.078125 -8.679688 18.457031 -8.265625 20.09375 -8.265625 C 21.582031 -8.265625 22.734375 -8.554688 23.546875 -9.140625 C 24.367188 -9.722656 24.78125 -10.476562 24.78125 -11.40625 C 24.78125 -12.53125 24.195312 -13.359375 23.03125 -13.890625 C 21.863281 -14.429688 19.972656 -15.03125 17.359375 -15.6875 C 14.554688 -16.332031 12.222656 -17.015625 10.359375 -17.734375 C 8.492188 -18.460938 6.882812 -19.609375 5.53125 -21.171875 C 4.175781 -22.734375 3.5 -24.847656 3.5 -27.515625 C 3.5 -29.753906 4.113281 -31.796875 5.34375 -33.640625 C 6.582031 -35.484375 8.40625 -36.941406 10.8125 -38.015625 C 13.21875 -39.085938 16.078125 -39.625 19.390625 -39.625 C 24.285156 -39.625 28.144531 -38.410156 30.96875 -35.984375 C 33.789062 -33.554688 35.414062 -30.332031 35.84375 -26.3125 L 24.78125 -26.3125 C 24.59375 -27.664062 23.992188 -28.738281 22.984375 -29.53125 C 21.984375 -30.332031 20.671875 -30.734375 19.046875 -30.734375 C 17.640625 -30.734375 16.5625 -30.460938 15.8125 -29.921875 C 15.070312 -29.390625 14.703125 -28.65625 14.703125 -27.71875 C 14.703125 -26.601562 15.296875 -25.765625 16.484375 -25.203125 C 17.671875 -24.640625 19.523438 -24.078125 22.046875 -23.515625 C 24.941406 -22.773438 27.296875 -22.039062 29.109375 -21.3125 C 30.929688 -20.59375 32.53125 -19.425781 33.90625 -17.8125 C 35.289062 -16.207031 36.003906 -14.050781 36.046875 -11.34375 C 36.046875 -9.050781 35.40625 -7.003906 34.125 -5.203125 C 32.84375 -3.410156 31 -2 28.59375 -0.96875 C 26.1875 0.0507812 23.398438 0.5625 20.234375 0.5625 Z M 20.234375 0.5625 "/></g></g></g><g fill="#a6a6a6" fill-opacity="1"><g transform="translate(111.731241, 110.750005)"><g><path d="M 7.203125 -21.203125 L 0.671875 -21.203125 L 0.671875 -24.015625 L 16.828125 -24.015625 L 16.828125 -21.203125 L 10.296875 -21.203125 L 10.296875 0 L 7.203125 0 Z M 7.203125 -21.203125 "/></g></g></g><g fill="#a6a6a6" fill-opacity="1"><g transform="translate(126.077737, 110.750005)"><g><path d="M 6.015625 0.421875 C 4.753906 0.421875 3.632812 0.0507812 2.65625 -0.6875 C 1.675781 -1.4375 1.1875 -2.796875 1.1875 -4.765625 C 1.1875 -7.117188 1.984375 -8.734375 3.578125 -9.609375 C 5.179688 -10.484375 7.488281 -10.921875 10.5 -10.921875 L 10.5 -13.296875 C 10.5 -14.253906 10.285156 -14.988281 9.859375 -15.5 C 9.441406 -16.019531 8.6875 -16.28125 7.59375 -16.28125 C 6.59375 -16.28125 5.867188 -16 5.421875 -15.4375 C 4.984375 -14.875 4.765625 -14.1875 4.765625 -13.375 L 4.765625 -12.953125 L 1.921875 -12.953125 C 1.898438 -13.085938 1.890625 -13.34375 1.890625 -13.71875 C 1.890625 -15.351562 2.425781 -16.613281 3.5 -17.5 C 4.570312 -18.382812 6.007812 -18.828125 7.8125 -18.828125 C 9.644531 -18.828125 11.03125 -18.382812 11.96875 -17.5 C 12.90625 -16.613281 13.375 -15.34375 13.375 -13.6875 L 13.375 -3.359375 C 13.375 -2.960938 13.46875 -2.660156 13.65625 -2.453125 C 13.84375 -2.242188 14.070312 -2.140625 14.34375 -2.140625 L 15.46875 -2.140625 L 15.46875 -0.140625 C 14.957031 0.140625 14.328125 0.28125 13.578125 0.28125 C 12.828125 0.28125 12.203125 0.078125 11.703125 -0.328125 C 11.203125 -0.734375 10.859375 -1.289062 10.671875 -2 L 10.5 -2 C 10.03125 -1.226562 9.40625 -0.628906 8.625 -0.203125 C 7.84375 0.210938 6.972656 0.421875 6.015625 0.421875 Z M 6.6875 -2.140625 C 7.3125 -2.140625 7.914062 -2.3125 8.5 -2.65625 C 9.082031 -3.007812 9.5625 -3.53125 9.9375 -4.21875 C 10.3125 -4.90625 10.5 -5.726562 10.5 -6.6875 L 10.5 -8.359375 C 8.394531 -8.359375 6.816406 -8.117188 5.765625 -7.640625 C 4.722656 -7.171875 4.203125 -6.269531 4.203125 -4.9375 C 4.203125 -3.9375 4.40625 -3.21875 4.8125 -2.78125 C 5.21875 -2.351562 5.84375 -2.140625 6.6875 -2.140625 Z M 6.6875 -2.140625 "/></g></g></g><g fill="#a6a6a6" fill-opacity="1"><g transform="translate(142.03413, 110.750005)"><g><path d="M 5.5625 -9.3125 L 0.453125 -18.40625 L 3.921875 -18.40625 L 7.203125 -12.109375 L 7.25 -12.109375 L 10.671875 -18.40625 L 13.890625 -18.40625 L 8.75 -9.5625 L 14.140625 0 L 10.671875 0 L 7.109375 -6.71875 L 7.0625 -6.71875 L 3.359375 0 L 0.203125 0 Z M 5.5625 -9.3125 "/></g></g></g><g fill="#a6a6a6" fill-opacity="1"><g transform="translate(156.380889, 110.750005)"><g/></g></g><g fill="#a6a6a6" fill-opacity="1"><g transform="translate(164.359091, 110.750005)"><g><path d="M 2.34375 -25.3125 L 5.109375 -25.3125 L 5.109375 6.0625 L 2.34375 6.0625 Z M 2.34375 -25.3125 "/></g></g></g><g fill="#a6a6a6" fill-opacity="1"><g transform="translate(171.81241, 110.750005)"><g/></g></g><g fill="#a6a6a6" fill-opacity="1"><g transform="translate(178.215837, 110.750005)"><g><path d="M 7.59375 -24.015625 L 11.546875 -24.015625 L 19.1875 0 L 15.859375 0 L 14.203125 -5.359375 L 4.6875 -5.359375 L 3.046875 0 L -0.03125 0 Z M 13.328125 -8.15625 L 10.078125 -18.828125 C 9.984375 -19.148438 9.875 -19.617188 9.75 -20.234375 C 9.625 -20.859375 9.546875 -21.273438 9.515625 -21.484375 L 9.375 -21.484375 C 9.351562 -21.273438 9.273438 -20.859375 9.140625 -20.234375 C 9.015625 -19.617188 8.90625 -19.148438 8.8125 -18.828125 L 5.53125 -8.15625 Z M 13.328125 -8.15625 "/></g></g></g><g fill="#a6a6a6" fill-opacity="1"><g transform="translate(197.356515, 110.750005)"><g><path d="M 7.5625 0.421875 C 5.394531 0.421875 3.800781 -0.351562 2.78125 -1.90625 C 1.769531 -3.457031 1.265625 -5.890625 1.265625 -9.203125 C 1.265625 -12.515625 1.773438 -14.945312 2.796875 -16.5 C 3.828125 -18.050781 5.414062 -18.828125 7.5625 -18.828125 C 9.519531 -18.828125 10.945312 -18.21875 11.84375 -17 C 12.738281 -15.789062 13.1875 -13.984375 13.1875 -11.578125 L 10.21875 -11.578125 C 10.21875 -13.234375 10.023438 -14.429688 9.640625 -15.171875 C 9.253906 -15.910156 8.5625 -16.28125 7.5625 -16.28125 C 6.4375 -16.28125 5.601562 -15.75 5.0625 -14.6875 C 4.53125 -13.625 4.265625 -12.019531 4.265625 -9.875 L 4.265625 -8.546875 C 4.265625 -6.390625 4.523438 -4.78125 5.046875 -3.71875 C 5.578125 -2.664062 6.414062 -2.140625 7.5625 -2.140625 C 8.5625 -2.140625 9.273438 -2.519531 9.703125 -3.28125 C 10.140625 -4.050781 10.359375 -5.234375 10.359375 -6.828125 L 13.1875 -6.828125 C 13.1875 -4.722656 12.726562 -2.988281 11.8125 -1.625 C 10.894531 -0.257812 9.476562 0.421875 7.5625 0.421875 Z M 7.5625 0.421875 "/></g></g></g><g fill="#a6a6a6" fill-opacity="1"><g transform="translate(211.703274, 110.750005)"><g><path d="M 7.5625 0.421875 C 5.394531 0.421875 3.800781 -0.351562 2.78125 -1.90625 C 1.769531 -3.457031 1.265625 -5.890625 1.265625 -9.203125 C 1.265625 -12.515625 1.773438 -14.945312 2.796875 -16.5 C 3.828125 -18.050781 5.414062 -18.828125 7.5625 -18.828125 C 9.519531 -18.828125 10.945312 -18.21875 11.84375 -17 C 12.738281 -15.789062 13.1875 -13.984375 13.1875 -11.578125 L 10.21875 -11.578125 C 10.21875 -13.234375 10.023438 -14.429688 9.640625 -15.171875 C 9.253906 -15.910156 8.5625 -16.28125 7.5625 -16.28125 C 6.4375 -16.28125 5.601562 -15.75 5.0625 -14.6875 C 4.53125 -13.625 4.265625 -12.019531 4.265625 -9.875 L 4.265625 -8.546875 C 4.265625 -6.390625 4.523438 -4.78125 5.046875 -3.71875 C 5.578125 -2.664062 6.414062 -2.140625 7.5625 -2.140625 C 8.5625 -2.140625 9.273438 -2.519531 9.703125 -3.28125 C 10.140625 -4.050781 10.359375 -5.234375 10.359375 -6.828125 L 13.1875 -6.828125 C 13.1875 -4.722656 12.726562 -2.988281 11.8125 -1.625 C 10.894531 -0.257812 9.476562 0.421875 7.5625 0.421875 Z M 7.5625 0.421875 "/></g></g></g><g fill="#a6a6a6" fill-opacity="1"><g transform="translate(226.050033, 110.750005)"><g><path d="M 7.984375 0.421875 C 5.804688 0.421875 4.164062 -0.363281 3.0625 -1.9375 C 1.957031 -3.519531 1.40625 -5.941406 1.40625 -9.203125 C 1.40625 -12.472656 1.957031 -14.894531 3.0625 -16.46875 C 4.164062 -18.039062 5.804688 -18.828125 7.984375 -18.828125 C 10.148438 -18.828125 11.785156 -18.039062 12.890625 -16.46875 C 14.003906 -14.894531 14.5625 -12.472656 14.5625 -9.203125 C 14.5625 -5.941406 14.003906 -3.519531 12.890625 -1.9375 C 11.785156 -0.363281 10.148438 0.421875 7.984375 0.421875 Z M 7.984375 -2.140625 C 10.359375 -2.140625 11.546875 -4.273438 11.546875 -8.546875 L 11.546875 -9.875 C 11.546875 -14.144531 10.359375 -16.28125 7.984375 -16.28125 C 5.597656 -16.28125 4.40625 -14.144531 4.40625 -9.875 L 4.40625 -8.546875 C 4.40625 -4.273438 5.597656 -2.140625 7.984375 -2.140625 Z M 7.984375 -2.140625 "/></g></g></g><g fill="#a6a6a6" fill-opacity="1"><g transform="translate(242.006426, 110.750005)"><g><path d="M 6.65625 0.421875 C 5.175781 0.421875 4.046875 -0.015625 3.265625 -0.890625 C 2.484375 -1.765625 2.09375 -3.179688 2.09375 -5.140625 L 2.09375 -18.40625 L 4.96875 -18.40625 L 4.96875 -5.359375 C 4.96875 -4.160156 5.1875 -3.320312 5.625 -2.84375 C 6.070312 -2.375 6.71875 -2.140625 7.5625 -2.140625 C 8.519531 -2.140625 9.328125 -2.59375 9.984375 -3.5 C 10.648438 -4.40625 10.984375 -5.628906 10.984375 -7.171875 L 10.984375 -18.40625 L 13.859375 -18.40625 L 13.859375 0 L 11.6875 0 L 11.3125 -2.140625 L 11.09375 -2.140625 C 10.132812 -0.429688 8.65625 0.421875 6.65625 0.421875 Z M 6.65625 0.421875 "/></g></g></g><g fill="#a6a6a6" fill-opacity="1"><g transform="translate(257.962819, 110.750005)"><g><path d="M 2.09375 -18.40625 L 4.265625 -18.40625 L 4.65625 -16.28125 L 4.859375 -16.28125 C 5.816406 -17.976562 7.300781 -18.828125 9.3125 -18.828125 C 10.78125 -18.828125 11.90625 -18.390625 12.6875 -17.515625 C 13.46875 -16.640625 13.859375 -15.222656 13.859375 -13.265625 L 13.859375 0 L 10.984375 0 L 10.984375 -13.0625 C 10.984375 -14.25 10.757812 -15.082031 10.3125 -15.5625 C 9.875 -16.039062 9.238281 -16.28125 8.40625 -16.28125 C 7.445312 -16.28125 6.632812 -15.820312 5.96875 -14.90625 C 5.300781 -14 4.96875 -12.773438 4.96875 -11.234375 L 4.96875 0 L 2.09375 0 Z M 2.09375 -18.40625 "/></g></g></g><g fill="#a6a6a6" fill-opacity="1"><g transform="translate(273.919212, 110.750005)"><g><path d="M 5.359375 0.34375 C 4.191406 0.34375 3.347656 -0.0546875 2.828125 -0.859375 C 2.316406 -1.660156 2.0625 -2.671875 2.0625 -3.890625 L 2.0625 -15.859375 L 0.484375 -15.859375 L 0.484375 -18.40625 L 2.0625 -18.40625 L 2.6875 -23.515625 L 4.9375 -23.515625 L 4.9375 -18.40625 L 7.421875 -18.40625 L 7.421875 -15.859375 L 4.9375 -15.859375 L 4.9375 -3.8125 C 4.9375 -2.695312 5.484375 -2.140625 6.578125 -2.140625 L 7.421875 -2.140625 L 7.421875 -0.140625 C 7.160156 -0.00390625 6.835938 0.109375 6.453125 0.203125 C 6.066406 0.296875 5.703125 0.34375 5.359375 0.34375 Z M 5.359375 0.34375 "/></g></g></g><g fill="#a6a6a6" fill-opacity="1"><g transform="translate(281.897414, 110.750005)"><g><path d="M 1.75 -25.3125 L 4.625 -25.3125 L 4.625 -21.875 L 1.75 -21.875 Z M 1.75 -18.40625 L 4.625 -18.40625 L 4.625 0 L 1.75 0 Z M 1.75 -18.40625 "/></g></g></g><g fill="#a6a6a6" fill-opacity="1"><g transform="translate(288.265971, 110.750005)"><g><path d="M 2.09375 -18.40625 L 4.265625 -18.40625 L 4.65625 -16.28125 L 4.859375 -16.28125 C 5.816406 -17.976562 7.300781 -18.828125 9.3125 -18.828125 C 10.78125 -18.828125 11.90625 -18.390625 12.6875 -17.515625 C 13.46875 -16.640625 13.859375 -15.222656 13.859375 -13.265625 L 13.859375 0 L 10.984375 0 L 10.984375 -13.0625 C 10.984375 -14.25 10.757812 -15.082031 10.3125 -15.5625 C 9.875 -16.039062 9.238281 -16.28125 8.40625 -16.28125 C 7.445312 -16.28125 6.632812 -15.820312 5.96875 -14.90625 C 5.300781 -14 4.96875 -12.773438 4.96875 -11.234375 L 4.96875 0 L 2.09375 0 Z M 2.09375 -18.40625 "/></g></g></g><g fill="#a6a6a6" fill-opacity="1"><g transform="translate(304.222364, 110.750005)"><g><path d="M 5 6.375 C 3.550781 6.375 2.429688 5.957031 1.640625 5.125 C 0.847656 4.300781 0.453125 3.257812 0.453125 2 C 0.453125 1.082031 0.664062 0.269531 1.09375 -0.4375 C 1.53125 -1.144531 2.109375 -1.640625 2.828125 -1.921875 C 2.367188 -2.222656 2.003906 -2.617188 1.734375 -3.109375 C 1.460938 -3.597656 1.328125 -4.125 1.328125 -4.6875 C 1.328125 -5.414062 1.5625 -6.054688 2.03125 -6.609375 C 2.5 -7.171875 3.128906 -7.59375 3.921875 -7.875 C 2.492188 -9.039062 1.78125 -10.628906 1.78125 -12.640625 C 1.78125 -14.578125 2.316406 -16.09375 3.390625 -17.1875 C 4.460938 -18.28125 5.9375 -18.828125 7.8125 -18.828125 C 8.757812 -18.828125 9.644531 -18.609375 10.46875 -18.171875 C 11.207031 -18.566406 11.742188 -19.03125 12.078125 -19.5625 C 12.421875 -20.101562 12.640625 -20.710938 12.734375 -21.390625 L 15.265625 -21.390625 C 15.265625 -20.265625 14.988281 -19.304688 14.4375 -18.515625 C 13.882812 -17.722656 13.132812 -17.207031 12.1875 -16.96875 C 13.28125 -15.832031 13.828125 -14.390625 13.828125 -12.640625 C 13.828125 -10.742188 13.296875 -9.238281 12.234375 -8.125 C 11.171875 -7.019531 9.738281 -6.457031 7.9375 -6.4375 L 6.015625 -6.4375 C 5.546875 -6.4375 5.148438 -6.28125 4.828125 -5.96875 C 4.503906 -5.65625 4.34375 -5.265625 4.34375 -4.796875 C 4.34375 -4.347656 4.503906 -3.960938 4.828125 -3.640625 C 5.148438 -3.316406 5.546875 -3.15625 6.015625 -3.15625 L 11.265625 -3.15625 C 12.578125 -3.15625 13.628906 -2.738281 14.421875 -1.90625 C 15.210938 -1.082031 15.609375 -0.0625 15.609375 1.15625 C 15.609375 2.675781 15.132812 3.925781 14.1875 4.90625 C 13.25 5.882812 11.925781 6.375 10.21875 6.375 Z M 7.765625 -8.8125 C 8.773438 -8.8125 9.550781 -9.148438 10.09375 -9.828125 C 10.644531 -10.503906 10.921875 -11.441406 10.921875 -12.640625 C 10.921875 -13.867188 10.644531 -14.8125 10.09375 -15.46875 C 9.550781 -16.125 8.773438 -16.453125 7.765625 -16.453125 C 6.765625 -16.453125 5.992188 -16.113281 5.453125 -15.4375 C 4.921875 -14.757812 4.65625 -13.828125 4.65625 -12.640625 C 4.65625 -11.398438 4.921875 -10.453125 5.453125 -9.796875 C 5.992188 -9.140625 6.765625 -8.8125 7.765625 -8.8125 Z M 10.53125 3.890625 C 11.132812 3.890625 11.644531 3.675781 12.0625 3.25 C 12.488281 2.832031 12.703125 2.320312 12.703125 1.71875 C 12.703125 1.082031 12.515625 0.566406 12.140625 0.171875 C 11.765625 -0.222656 11.226562 -0.421875 10.53125 -0.421875 L 5.453125 -0.421875 C 4.753906 -0.421875 4.222656 -0.222656 3.859375 0.171875 C 3.503906 0.566406 3.328125 1.082031 3.328125 1.71875 C 3.328125 2.34375 3.507812 2.859375 3.875 3.265625 C 4.25 3.679688 4.773438 3.890625 5.453125 3.890625 Z M 10.53125 3.890625 "/></g></g></g><g fill="#a6a6a6" fill-opacity="1"><g transform="translate(320.178769, 110.750005)"><g/></g></g><g fill="#a6a6a6" fill-opacity="1"><g transform="translate(328.156949, 110.750005)"><g><path d="M 2.34375 -25.3125 L 5.109375 -25.3125 L 5.109375 6.0625 L 2.34375 6.0625 Z M 2.34375 -25.3125 "/></g></g></g><g fill="#a6a6a6" fill-opacity="1"><g transform="translate(335.610279, 110.750005)"><g/></g></g><g fill="#a6a6a6" fill-opacity="1"><g transform="translate(343.098537, 110.750005)"><g><path d="M 7.203125 -21.203125 L 0.671875 -21.203125 L 0.671875 -24.015625 L 16.828125 -24.015625 L 16.828125 -21.203125 L 10.296875 -21.203125 L 10.296875 0 L 7.203125 0 Z M 7.203125 -21.203125 "/></g></g></g><g fill="#a6a6a6" fill-opacity="1"><g transform="translate(357.445033, 110.750005)"><g><path d="M 8.4375 0.421875 C 6.101562 0.421875 4.359375 -0.34375 3.203125 -1.875 C 2.046875 -3.40625 1.46875 -5.847656 1.46875 -9.203125 C 1.46875 -12.492188 2.039062 -14.921875 3.1875 -16.484375 C 4.332031 -18.046875 6.070312 -18.828125 8.40625 -18.828125 C 10.457031 -18.828125 11.976562 -18.144531 12.96875 -16.78125 C 13.957031 -15.414062 14.453125 -13.21875 14.453125 -10.1875 L 14.453125 -8.359375 L 4.484375 -8.359375 C 4.503906 -6.210938 4.832031 -4.640625 5.46875 -3.640625 C 6.113281 -2.640625 7.125 -2.140625 8.5 -2.140625 C 9.4375 -2.140625 10.191406 -2.507812 10.765625 -3.25 C 11.335938 -4 11.625 -5.003906 11.625 -6.265625 L 14.453125 -6.265625 C 14.453125 -4.210938 13.894531 -2.582031 12.78125 -1.375 C 11.675781 -0.175781 10.226562 0.421875 8.4375 0.421875 Z M 11.4375 -10.921875 C 11.4375 -12.671875 11.179688 -14 10.671875 -14.90625 C 10.160156 -15.820312 9.40625 -16.28125 8.40625 -16.28125 C 7.164062 -16.28125 6.234375 -15.84375 5.609375 -14.96875 C 4.992188 -14.09375 4.628906 -12.742188 4.515625 -10.921875 Z M 11.4375 -10.921875 "/></g></g></g><g fill="#a6a6a6" fill-opacity="1"><g transform="translate(373.401438, 110.750005)"><g><path d="M 7.5625 0.421875 C 5.394531 0.421875 3.800781 -0.351562 2.78125 -1.90625 C 1.769531 -3.457031 1.265625 -5.890625 1.265625 -9.203125 C 1.265625 -12.515625 1.773438 -14.945312 2.796875 -16.5 C 3.828125 -18.050781 5.414062 -18.828125 7.5625 -18.828125 C 9.519531 -18.828125 10.945312 -18.21875 11.84375 -17 C 12.738281 -15.789062 13.1875 -13.984375 13.1875 -11.578125 L 10.21875 -11.578125 C 10.21875 -13.234375 10.023438 -14.429688 9.640625 -15.171875 C 9.253906 -15.910156 8.5625 -16.28125 7.5625 -16.28125 C 6.4375 -16.28125 5.601562 -15.75 5.0625 -14.6875 C 4.53125 -13.625 4.265625 -12.019531 4.265625 -9.875 L 4.265625 -8.546875 C 4.265625 -6.390625 4.523438 -4.78125 5.046875 -3.71875 C 5.578125 -2.664062 6.414062 -2.140625 7.5625 -2.140625 C 8.5625 -2.140625 9.273438 -2.519531 9.703125 -3.28125 C 10.140625 -4.050781 10.359375 -5.234375 10.359375 -6.828125 L 13.1875 -6.828125 C 13.1875 -4.722656 12.726562 -2.988281 11.8125 -1.625 C 10.894531 -0.257812 9.476562 0.421875 7.5625 0.421875 Z M 7.5625 0.421875 "/></g></g></g><g fill="#a6a6a6" fill-opacity="1"><g transform="translate(387.748208, 110.750005)"><g><path d="M 2.09375 -25.3125 L 4.96875 -25.3125 L 4.96875 -16.484375 L 5.1875 -16.484375 C 6.070312 -18.046875 7.445312 -18.828125 9.3125 -18.828125 C 10.78125 -18.828125 11.90625 -18.390625 12.6875 -17.515625 C 13.46875 -16.640625 13.859375 -15.222656 13.859375 -13.265625 L 13.859375 0 L 10.984375 0 L 10.984375 -13.0625 C 10.984375 -14.25 10.757812 -15.082031 10.3125 -15.5625 C 9.875 -16.039062 9.238281 -16.28125 8.40625 -16.28125 C 7.445312 -16.28125 6.632812 -15.820312 5.96875 -14.90625 C 5.300781 -14 4.96875 -12.773438 4.96875 -11.234375 L 4.96875 0 L 2.09375 0 Z M 2.09375 -25.3125 "/></g></g></g><g fill="#a6a6a6" fill-opacity="1"><g transform="translate(403.70459, 110.750005)"><g><path d="M 2.09375 -18.40625 L 4.265625 -18.40625 L 4.65625 -16.28125 L 4.859375 -16.28125 C 5.816406 -17.976562 7.300781 -18.828125 9.3125 -18.828125 C 10.78125 -18.828125 11.90625 -18.390625 12.6875 -17.515625 C 13.46875 -16.640625 13.859375 -15.222656 13.859375 -13.265625 L 13.859375 0 L 10.984375 0 L 10.984375 -13.0625 C 10.984375 -14.25 10.757812 -15.082031 10.3125 -15.5625 C 9.875 -16.039062 9.238281 -16.28125 8.40625 -16.28125 C 7.445312 -16.28125 6.632812 -15.820312 5.96875 -14.90625 C 5.300781 -14 4.96875 -12.773438 4.96875 -11.234375 L 4.96875 0 L 2.09375 0 Z M 2.09375 -18.40625 "/></g></g></g><g fill="#a6a6a6" fill-opacity="1"><g transform="translate(419.660972, 110.750005)"><g><path d="M 7.984375 0.421875 C 5.804688 0.421875 4.164062 -0.363281 3.0625 -1.9375 C 1.957031 -3.519531 1.40625 -5.941406 1.40625 -9.203125 C 1.40625 -12.472656 1.957031 -14.894531 3.0625 -16.46875 C 4.164062 -18.039062 5.804688 -18.828125 7.984375 -18.828125 C 10.148438 -18.828125 11.785156 -18.039062 12.890625 -16.46875 C 14.003906 -14.894531 14.5625 -12.472656 14.5625 -9.203125 C 14.5625 -5.941406 14.003906 -3.519531 12.890625 -1.9375 C 11.785156 -0.363281 10.148438 0.421875 7.984375 0.421875 Z M 7.984375 -2.140625 C 10.359375 -2.140625 11.546875 -4.273438 11.546875 -8.546875 L 11.546875 -9.875 C 11.546875 -14.144531 10.359375 -16.28125 7.984375 -16.28125 C 5.597656 -16.28125 4.40625 -14.144531 4.40625 -9.875 L 4.40625 -8.546875 C 4.40625 -4.273438 5.597656 -2.140625 7.984375 -2.140625 Z M 7.984375 -2.140625 "/></g></g></g><g fill="#a6a6a6" fill-opacity="1"><g transform="translate(435.617377, 110.750005)"><g><path d="M 1.75 -25.3125 L 4.625 -25.3125 L 4.625 0 L 1.75 0 Z M 1.75 -25.3125 "/></g></g></g><g fill="#a6a6a6" fill-opacity="1"><g transform="translate(441.985923, 110.750005)"><g><path d="M 7.984375 0.421875 C 5.804688 0.421875 4.164062 -0.363281 3.0625 -1.9375 C 1.957031 -3.519531 1.40625 -5.941406 1.40625 -9.203125 C 1.40625 -12.472656 1.957031 -14.894531 3.0625 -16.46875 C 4.164062 -18.039062 5.804688 -18.828125 7.984375 -18.828125 C 10.148438 -18.828125 11.785156 -18.039062 12.890625 -16.46875 C 14.003906 -14.894531 14.5625 -12.472656 14.5625 -9.203125 C 14.5625 -5.941406 14.003906 -3.519531 12.890625 -1.9375 C 11.785156 -0.363281 10.148438 0.421875 7.984375 0.421875 Z M 7.984375 -2.140625 C 10.359375 -2.140625 11.546875 -4.273438 11.546875 -8.546875 L 11.546875 -9.875 C 11.546875 -14.144531 10.359375 -16.28125 7.984375 -16.28125 C 5.597656 -16.28125 4.40625 -14.144531 4.40625 -9.875 L 4.40625 -8.546875 C 4.40625 -4.273438 5.597656 -2.140625 7.984375 -2.140625 Z M 7.984375 -2.140625 "/></g></g></g><g fill="#a6a6a6" fill-opacity="1"><g transform="translate(457.942328, 110.750005)"><g><path d="M 5 6.375 C 3.550781 6.375 2.429688 5.957031 1.640625 5.125 C 0.847656 4.300781 0.453125 3.257812 0.453125 2 C 0.453125 1.082031 0.664062 0.269531 1.09375 -0.4375 C 1.53125 -1.144531 2.109375 -1.640625 2.828125 -1.921875 C 2.367188 -2.222656 2.003906 -2.617188 1.734375 -3.109375 C 1.460938 -3.597656 1.328125 -4.125 1.328125 -4.6875 C 1.328125 -5.414062 1.5625 -6.054688 2.03125 -6.609375 C 2.5 -7.171875 3.128906 -7.59375 3.921875 -7.875 C 2.492188 -9.039062 1.78125 -10.628906 1.78125 -12.640625 C 1.78125 -14.578125 2.316406 -16.09375 3.390625 -17.1875 C 4.460938 -18.28125 5.9375 -18.828125 7.8125 -18.828125 C 8.757812 -18.828125 9.644531 -18.609375 10.46875 -18.171875 C 11.207031 -18.566406 11.742188 -19.03125 12.078125 -19.5625 C 12.421875 -20.101562 12.640625 -20.710938 12.734375 -21.390625 L 15.265625 -21.390625 C 15.265625 -20.265625 14.988281 -19.304688 14.4375 -18.515625 C 13.882812 -17.722656 13.132812 -17.207031 12.1875 -16.96875 C 13.28125 -15.832031 13.828125 -14.390625 13.828125 -12.640625 C 13.828125 -10.742188 13.296875 -9.238281 12.234375 -8.125 C 11.171875 -7.019531 9.738281 -6.457031 7.9375 -6.4375 L 6.015625 -6.4375 C 5.546875 -6.4375 5.148438 -6.28125 4.828125 -5.96875 C 4.503906 -5.65625 4.34375 -5.265625 4.34375 -4.796875 C 4.34375 -4.347656 4.503906 -3.960938 4.828125 -3.640625 C 5.148438 -3.316406 5.546875 -3.15625 6.015625 -3.15625 L 11.265625 -3.15625 C 12.578125 -3.15625 13.628906 -2.738281 14.421875 -1.90625 C 15.210938 -1.082031 15.609375 -0.0625 15.609375 1.15625 C 15.609375 2.675781 15.132812 3.925781 14.1875 4.90625 C 13.25 5.882812 11.925781 6.375 10.21875 6.375 Z M 7.765625 -8.8125 C 8.773438 -8.8125 9.550781 -9.148438 10.09375 -9.828125 C 10.644531 -10.503906 10.921875 -11.441406 10.921875 -12.640625 C 10.921875 -13.867188 10.644531 -14.8125 10.09375 -15.46875 C 9.550781 -16.125 8.773438 -16.453125 7.765625 -16.453125 C 6.765625 -16.453125 5.992188 -16.113281 5.453125 -15.4375 C 4.921875 -14.757812 4.65625 -13.828125 4.65625 -12.640625 C 4.65625 -11.398438 4.921875 -10.453125 5.453125 -9.796875 C 5.992188 -9.140625 6.765625 -8.8125 7.765625 -8.8125 Z M 10.53125 3.890625 C 11.132812 3.890625 11.644531 3.675781 12.0625 3.25 C 12.488281 2.832031 12.703125 2.320312 12.703125 1.71875 C 12.703125 1.082031 12.515625 0.566406 12.140625 0.171875 C 11.765625 -0.222656 11.226562 -0.421875 10.53125 -0.421875 L 5.453125 -0.421875 C 4.753906 -0.421875 4.222656 -0.222656 3.859375 0.171875 C 3.503906 0.566406 3.328125 1.082031 3.328125 1.71875 C 3.328125 2.34375 3.507812 2.859375 3.875 3.265625 C 4.25 3.679688 4.773438 3.890625 5.453125 3.890625 Z M 10.53125 3.890625 "/></g></g></g><g fill="#a6a6a6" fill-opacity="1"><g transform="translate(473.898733, 110.750005)"><g><path d="M 3.390625 6.375 C 2.554688 6.375 1.867188 6.28125 1.328125 6.09375 L 1.328125 4.09375 L 2.34375 4.09375 C 4.1875 4.09375 5.398438 2.726562 5.984375 0 L 0.34375 -18.40625 L 3.5 -18.40625 L 6.609375 -7.421875 L 7.5625 -4.125 L 7.703125 -4.125 L 8.5 -7.484375 L 11.125 -18.40625 L 14.03125 -18.40625 L 9.34375 -0.9375 C 8.738281 1.34375 7.96875 3.128906 7.03125 4.421875 C 6.101562 5.722656 4.890625 6.375 3.390625 6.375 Z M 3.390625 6.375 "/></g></g></g></svg>