<svg xmlns="http://www.w3.org/2000/svg" xmlns:xlink="http://www.w3.org/1999/xlink" width="600" zoomAndPan="magnify" viewBox="0 0 450 149.999998" height="200" preserveAspectRatio="xMidYMid meet" version="1.0"><defs><g/></defs><g fill="#d9d9d9" fill-opacity="1"><g transform="translate(12.712512, 78.875218)"><g><path d="M 2.921875 -29.21875 C 2.921875 -34.945312 4.210938 -40.078125 6.796875 -44.609375 C 9.390625 -49.148438 12.925781 -52.6875 17.40625 -55.21875 C 21.882812 -57.75 26.90625 -59.015625 32.46875 -59.015625 C 38.976562 -59.015625 44.679688 -57.34375 49.578125 -54 C 54.472656 -50.664062 57.894531 -46.046875 59.84375 -40.140625 L 46.40625 -40.140625 C 45.070312 -42.929688 43.191406 -45.019531 40.765625 -46.40625 C 38.347656 -47.800781 35.554688 -48.5 32.390625 -48.5 C 28.992188 -48.5 25.972656 -47.703125 23.328125 -46.109375 C 20.679688 -44.523438 18.617188 -42.285156 17.140625 -39.390625 C 15.671875 -36.503906 14.9375 -33.113281 14.9375 -29.21875 C 14.9375 -25.375 15.671875 -21.988281 17.140625 -19.0625 C 18.617188 -16.144531 20.679688 -13.894531 23.328125 -12.3125 C 25.972656 -10.726562 28.992188 -9.9375 32.390625 -9.9375 C 35.554688 -9.9375 38.347656 -10.644531 40.765625 -12.0625 C 43.191406 -13.476562 45.070312 -15.578125 46.40625 -18.359375 L 59.84375 -18.359375 C 57.894531 -12.410156 54.484375 -7.78125 49.609375 -4.46875 C 44.742188 -1.15625 39.03125 0.5 32.46875 0.5 C 26.90625 0.5 21.882812 -0.765625 17.40625 -3.296875 C 12.925781 -5.828125 9.390625 -9.34375 6.796875 -13.84375 C 4.210938 -18.351562 2.921875 -23.476562 2.921875 -29.21875 Z M 2.921875 -29.21875 "/></g></g></g><g fill="#d9d9d9" fill-opacity="1"><g transform="translate(76.819518, 78.875218)"><g><path d="M 69.28125 -58.265625 L 69.28125 0 L 57.59375 0 L 57.59375 -37.890625 L 41.984375 0 L 33.140625 0 L 17.4375 -37.890625 L 17.4375 0 L 5.765625 0 L 5.765625 -58.265625 L 19.03125 -58.265625 L 37.5625 -14.9375 L 56.09375 -58.265625 Z M 69.28125 -58.265625 "/></g></g></g><g fill="#ffffff" fill-opacity="1"><g transform="translate(151.872664, 78.875218)"><g><path d="M 44.578125 -58.84375 L 44.578125 -45.828125 L 21.03125 -45.828125 L 21.03125 -35.46875 L 38.390625 -35.46875 L 38.390625 -23.03125 L 21.03125 -23.03125 L 21.03125 0 L 4.671875 0 L 4.671875 -58.84375 Z M 44.578125 -58.84375 "/></g></g></g><g fill="#ffffff" fill-opacity="1"><g transform="translate(198.700832, 78.875218)"><g><path d="M 12.9375 -51.171875 C 10.039062 -51.171875 7.71875 -51.960938 5.96875 -53.546875 C 4.21875 -55.128906 3.34375 -57.117188 3.34375 -59.515625 C 3.34375 -61.960938 4.21875 -63.992188 5.96875 -65.609375 C 7.71875 -67.222656 10.039062 -68.03125 12.9375 -68.03125 C 15.769531 -68.03125 18.0625 -67.222656 19.8125 -65.609375 C 21.570312 -63.992188 22.453125 -61.960938 22.453125 -59.515625 C 22.453125 -57.117188 21.570312 -55.128906 19.8125 -53.546875 C 18.0625 -51.960938 15.769531 -51.171875 12.9375 -51.171875 Z M 21.03125 -46.828125 L 21.03125 0 L 4.671875 0 L 4.671875 -46.828125 Z M 21.03125 -46.828125 "/></g></g></g><g fill="#ffffff" fill-opacity="1"><g transform="translate(224.410417, 78.875218)"><g><path d="M 21.03125 -61.765625 L 21.03125 0 L 4.671875 0 L 4.671875 -61.765625 Z M 21.03125 -61.765625 "/></g></g></g><g fill="#ffffff" fill-opacity="1"><g transform="translate(250.120003, 78.875218)"><g><path d="M 12.9375 -51.171875 C 10.039062 -51.171875 7.71875 -51.960938 5.96875 -53.546875 C 4.21875 -55.128906 3.34375 -57.117188 3.34375 -59.515625 C 3.34375 -61.960938 4.21875 -63.992188 5.96875 -65.609375 C 7.71875 -67.222656 10.039062 -68.03125 12.9375 -68.03125 C 15.769531 -68.03125 18.0625 -67.222656 19.8125 -65.609375 C 21.570312 -63.992188 22.453125 -61.960938 22.453125 -59.515625 C 22.453125 -57.117188 21.570312 -55.128906 19.8125 -53.546875 C 18.0625 -51.960938 15.769531 -51.171875 12.9375 -51.171875 Z M 21.03125 -46.828125 L 21.03125 0 L 4.671875 0 L 4.671875 -46.828125 Z M 21.03125 -46.828125 "/></g></g></g><g fill="#ffffff" fill-opacity="1"><g transform="translate(275.829588, 78.875218)"><g><path d="M 35.3125 -47.25 C 40.707031 -47.25 44.988281 -45.453125 48.15625 -41.859375 C 51.332031 -38.265625 52.921875 -33.410156 52.921875 -27.296875 L 52.921875 0 L 36.5625 0 L 36.5625 -25.125 C 36.5625 -27.789062 35.863281 -29.890625 34.46875 -31.421875 C 33.082031 -32.953125 31.21875 -33.71875 28.875 -33.71875 C 26.425781 -33.71875 24.503906 -32.953125 23.109375 -31.421875 C 21.722656 -29.890625 21.03125 -27.789062 21.03125 -25.125 L 21.03125 0 L 4.671875 0 L 4.671875 -46.828125 L 21.03125 -46.828125 L 21.03125 -40.140625 C 22.476562 -42.253906 24.425781 -43.96875 26.875 -45.28125 C 29.320312 -46.59375 32.132812 -47.25 35.3125 -47.25 Z M 35.3125 -47.25 "/></g></g></g><g fill="#ffffff" fill-opacity="1"><g transform="translate(333.091837, 78.875218)"><g><path d="M 21.953125 -47.40625 C 25.117188 -47.40625 27.882812 -46.765625 30.25 -45.484375 C 32.625 -44.210938 34.445312 -42.488281 35.71875 -40.3125 L 35.71875 -46.828125 L 52.078125 -46.828125 L 52.078125 -0.5 C 52.078125 3.894531 51.242188 7.859375 49.578125 11.390625 C 47.910156 14.921875 45.304688 17.742188 41.765625 19.859375 C 38.234375 21.972656 33.769531 23.03125 28.375 23.03125 C 21.144531 23.03125 15.359375 21.332031 11.015625 17.9375 C 6.671875 14.550781 4.195312 9.9375 3.59375 4.09375 L 19.703125 4.09375 C 20.035156 5.59375 20.867188 6.757812 22.203125 7.59375 C 23.535156 8.425781 25.257812 8.84375 27.375 8.84375 C 32.9375 8.84375 35.71875 5.726562 35.71875 -0.5 L 35.71875 -6.515625 C 34.445312 -4.335938 32.625 -2.609375 30.25 -1.328125 C 27.882812 -0.0546875 25.117188 0.578125 21.953125 0.578125 C 18.222656 0.578125 14.84375 -0.394531 11.8125 -2.34375 C 8.78125 -4.289062 6.382812 -7.082031 4.625 -10.71875 C 2.875 -14.363281 2 -18.609375 2 -23.453125 C 2 -28.296875 2.875 -32.523438 4.625 -36.140625 C 6.382812 -39.753906 8.78125 -42.535156 11.8125 -44.484375 C 14.84375 -46.429688 18.222656 -47.40625 21.953125 -47.40625 Z M 35.71875 -23.453125 C 35.71875 -26.460938 34.894531 -28.828125 33.25 -30.546875 C 31.613281 -32.273438 29.597656 -33.140625 27.203125 -33.140625 C 24.753906 -33.140625 22.722656 -32.289062 21.109375 -30.59375 C 19.503906 -28.894531 18.703125 -26.515625 18.703125 -23.453125 C 18.703125 -20.453125 19.503906 -18.070312 21.109375 -16.3125 C 22.722656 -14.5625 24.753906 -13.6875 27.203125 -13.6875 C 29.597656 -13.6875 31.613281 -14.546875 33.25 -16.265625 C 34.894531 -17.992188 35.71875 -20.390625 35.71875 -23.453125 Z M 35.71875 -23.453125 "/></g></g></g><g fill="#ffffff" fill-opacity="1"><g transform="translate(389.853247, 78.875218)"><g><path d="M 24.625 0.578125 C 20.394531 0.578125 16.625 -0.128906 13.3125 -1.546875 C 10 -2.960938 7.382812 -4.90625 5.46875 -7.375 C 3.550781 -9.851562 2.476562 -12.65625 2.25 -15.78125 L 18.109375 -15.78125 C 18.335938 -14.269531 19.035156 -13.097656 20.203125 -12.265625 C 21.367188 -11.429688 22.816406 -11.015625 24.546875 -11.015625 C 25.878906 -11.015625 26.929688 -11.289062 27.703125 -11.84375 C 28.484375 -12.40625 28.875 -13.128906 28.875 -14.015625 C 28.875 -15.191406 28.234375 -16.054688 26.953125 -16.609375 C 25.679688 -17.160156 23.566406 -17.773438 20.609375 -18.453125 C 17.273438 -19.117188 14.492188 -19.867188 12.265625 -20.703125 C 10.046875 -21.535156 8.113281 -22.894531 6.46875 -24.78125 C 4.820312 -26.675781 4 -29.238281 4 -32.46875 C 4 -35.25 4.75 -37.765625 6.25 -40.015625 C 7.757812 -42.273438 9.972656 -44.070312 12.890625 -45.40625 C 15.816406 -46.738281 19.335938 -47.40625 23.453125 -47.40625 C 29.578125 -47.40625 34.390625 -45.898438 37.890625 -42.890625 C 41.398438 -39.890625 43.429688 -35.941406 43.984375 -31.046875 L 29.21875 -31.046875 C 28.9375 -32.546875 28.28125 -33.695312 27.25 -34.5 C 26.21875 -35.3125 24.84375 -35.71875 23.125 -35.71875 C 21.789062 -35.71875 20.773438 -35.46875 20.078125 -34.96875 C 19.378906 -34.46875 19.03125 -33.773438 19.03125 -32.890625 C 19.03125 -31.773438 19.671875 -30.925781 20.953125 -30.34375 C 22.234375 -29.757812 24.289062 -29.160156 27.125 -28.546875 C 30.519531 -27.828125 33.34375 -27.019531 35.59375 -26.125 C 37.851562 -25.238281 39.832031 -23.804688 41.53125 -21.828125 C 43.226562 -19.847656 44.078125 -17.160156 44.078125 -13.765625 C 44.078125 -11.046875 43.28125 -8.597656 41.6875 -6.421875 C 40.101562 -4.253906 37.847656 -2.546875 34.921875 -1.296875 C 32.003906 -0.046875 28.570312 0.578125 24.625 0.578125 Z M 24.625 0.578125 "/></g></g></g><g fill="#d9d9d9" fill-opacity="1"><g transform="translate(31.122667, 135.125214)"><g><path d="M 4.59375 -23.390625 L 0.375 -23.390625 L 0.375 -27.984375 L 15 -27.984375 L 15 -23.390625 L 10.8125 -23.390625 L 10.8125 0 L 4.59375 0 Z M 4.59375 -23.390625 "/></g></g></g><g fill="#d9d9d9" fill-opacity="1"><g transform="translate(48.984102, 135.125214)"><g><path d="M 5.875 0.34375 C 4.90625 0.34375 4.066406 0.109375 3.359375 -0.359375 C 2.660156 -0.835938 2.132812 -1.445312 1.78125 -2.1875 C 1.425781 -2.9375 1.25 -3.71875 1.25 -4.53125 C 1.25 -6.070312 1.640625 -7.335938 2.421875 -8.328125 C 3.203125 -9.316406 4.140625 -10.085938 5.234375 -10.640625 C 6.328125 -11.191406 7.738281 -11.769531 9.46875 -12.375 L 9.46875 -14.375 C 9.46875 -14.945312 9.378906 -15.382812 9.203125 -15.6875 C 9.035156 -15.988281 8.734375 -16.140625 8.296875 -16.140625 C 7.859375 -16.140625 7.546875 -16 7.359375 -15.71875 C 7.171875 -15.4375 7.066406 -15.046875 7.046875 -14.546875 L 6.90625 -13.09375 L 1.65625 -13.296875 C 1.75 -15.691406 2.378906 -17.457031 3.546875 -18.59375 C 4.722656 -19.738281 6.476562 -20.3125 8.8125 -20.3125 C 10.769531 -20.3125 12.265625 -19.765625 13.296875 -18.671875 C 14.335938 -17.578125 14.859375 -16.117188 14.859375 -14.296875 L 14.859375 -4.96875 C 14.859375 -2.945312 14.972656 -1.289062 15.203125 0 L 10.15625 0 C 9.945312 -1.539062 9.796875 -2.484375 9.703125 -2.828125 C 9.429688 -1.910156 8.972656 -1.148438 8.328125 -0.546875 C 7.679688 0.046875 6.863281 0.34375 5.875 0.34375 Z M 7.875 -3.453125 C 8.445312 -3.453125 8.976562 -3.785156 9.46875 -4.453125 L 9.46875 -9.921875 C 8.425781 -9.316406 7.640625 -8.6875 7.109375 -8.03125 C 6.585938 -7.375 6.328125 -6.570312 6.328125 -5.625 C 6.328125 -4.957031 6.460938 -4.425781 6.734375 -4.03125 C 7.015625 -3.644531 7.394531 -3.453125 7.875 -3.453125 Z M 7.875 -3.453125 "/></g></g></g><g fill="#d9d9d9" fill-opacity="1"><g transform="translate(67.916485, 135.125214)"><g><path d="M 4.625 -10.953125 L 0.59375 -19.96875 L 6.25 -19.96875 L 8.390625 -15.171875 L 10.296875 -19.96875 L 14.609375 -19.96875 L 10.671875 -10.125 L 15.203125 0 L 9.46875 0 L 7.046875 -5.5 L 5.046875 0 L 0.375 0 Z M 4.625 -10.953125 "/></g></g></g><g fill="#d9d9d9" fill-opacity="1"><g transform="translate(85.674281, 135.125214)"><g/></g></g><g fill="#d9d9d9" fill-opacity="1"><g transform="translate(97.006357, 135.125214)"><g><path d="M 2.25 -27.984375 L 6.84375 -27.984375 L 6.84375 6.21875 L 2.21875 6.21875 Z M 2.25 -27.984375 "/></g></g></g><g fill="#d9d9d9" fill-opacity="1"><g transform="translate(108.54572, 135.125214)"><g/></g></g><g fill="#d9d9d9" fill-opacity="1"><g transform="translate(119.877797, 135.125214)"><g><path d="M 10.09375 0.421875 C 7.050781 0.421875 4.890625 -0.378906 3.609375 -1.984375 C 2.328125 -3.585938 1.6875 -5.894531 1.6875 -8.90625 L 1.6875 -19 C 1.6875 -22.082031 2.320312 -24.410156 3.59375 -25.984375 C 4.863281 -27.566406 7.03125 -28.359375 10.09375 -28.359375 C 13.007812 -28.359375 15.078125 -27.65625 16.296875 -26.25 C 17.523438 -24.84375 18.140625 -22.851562 18.140625 -20.28125 L 18.140625 -17.859375 L 12.09375 -17.859375 L 12.09375 -20.65625 C 12.09375 -21.738281 11.976562 -22.566406 11.75 -23.140625 C 11.519531 -23.722656 10.96875 -24.015625 10.09375 -24.015625 C 9.21875 -24.015625 8.640625 -23.707031 8.359375 -23.09375 C 8.085938 -22.476562 7.953125 -21.632812 7.953125 -20.5625 L 7.953125 -7.390625 C 7.953125 -6.285156 8.09375 -5.4375 8.375 -4.84375 C 8.664062 -4.257812 9.238281 -3.96875 10.09375 -3.96875 C 10.9375 -3.96875 11.476562 -4.257812 11.71875 -4.84375 C 11.96875 -5.4375 12.09375 -6.285156 12.09375 -7.390625 L 12.09375 -10.328125 L 18.140625 -10.328125 L 18.140625 -7.90625 C 18.140625 -5.28125 17.523438 -3.234375 16.296875 -1.765625 C 15.078125 -0.304688 13.007812 0.421875 10.09375 0.421875 Z M 10.09375 0.421875 "/></g></g></g><g fill="#d9d9d9" fill-opacity="1"><g transform="translate(141.815753, 135.125214)"><g><path d="M 8.328125 0.34375 C 6.140625 0.34375 4.425781 -0.207031 3.1875 -1.3125 C 1.957031 -2.414062 1.34375 -4.039062 1.34375 -6.1875 L 1.34375 -13.78125 C 1.34375 -15.925781 1.957031 -17.550781 3.1875 -18.65625 C 4.425781 -19.757812 6.140625 -20.3125 8.328125 -20.3125 C 10.515625 -20.3125 12.226562 -19.753906 13.46875 -18.640625 C 14.71875 -17.523438 15.34375 -15.90625 15.34375 -13.78125 L 15.34375 -6.1875 C 15.34375 -4.0625 14.71875 -2.441406 13.46875 -1.328125 C 12.226562 -0.210938 10.515625 0.34375 8.328125 0.34375 Z M 8.359375 -3.390625 C 8.890625 -3.390625 9.257812 -3.585938 9.46875 -3.984375 C 9.675781 -4.390625 9.78125 -4.992188 9.78125 -5.796875 L 9.78125 -14.171875 C 9.78125 -14.972656 9.675781 -15.570312 9.46875 -15.96875 C 9.257812 -16.375 8.890625 -16.578125 8.359375 -16.578125 C 7.828125 -16.578125 7.453125 -16.367188 7.234375 -15.953125 C 7.015625 -15.546875 6.90625 -14.953125 6.90625 -14.171875 L 6.90625 -5.796875 C 6.90625 -4.992188 7.015625 -4.390625 7.234375 -3.984375 C 7.453125 -3.585938 7.828125 -3.390625 8.359375 -3.390625 Z M 8.359375 -3.390625 "/></g></g></g><g fill="#d9d9d9" fill-opacity="1"><g transform="translate(160.989962, 135.125214)"><g><path d="M 1.765625 -19.96875 L 7.296875 -19.96875 L 7.296875 -18.375 C 8.628906 -19.6875 10.203125 -20.34375 12.015625 -20.34375 C 12.828125 -20.34375 13.523438 -20.140625 14.109375 -19.734375 C 14.703125 -19.335938 15.144531 -18.75 15.4375 -17.96875 C 16.84375 -19.550781 18.535156 -20.34375 20.515625 -20.34375 C 21.691406 -20.34375 22.628906 -19.910156 23.328125 -19.046875 C 24.035156 -18.179688 24.390625 -17.003906 24.390625 -15.515625 L 24.390625 0 L 18.859375 0 L 18.859375 -14.921875 C 18.859375 -15.472656 18.757812 -15.867188 18.5625 -16.109375 C 18.375 -16.359375 18.082031 -16.484375 17.6875 -16.484375 C 17.4375 -16.484375 17.132812 -16.414062 16.78125 -16.28125 C 16.4375 -16.15625 16.117188 -15.976562 15.828125 -15.75 L 15.828125 0 L 10.359375 0 L 10.359375 -14.921875 C 10.359375 -15.960938 9.957031 -16.484375 9.15625 -16.484375 C 8.625 -16.484375 8.003906 -16.238281 7.296875 -15.75 L 7.296875 0 L 1.765625 0 Z M 1.765625 -19.96875 "/></g></g></g><g fill="#d9d9d9" fill-opacity="1"><g transform="translate(189.491825, 135.125214)"><g><path d="M 1.765625 -19.96875 L 7.390625 -19.96875 L 7.390625 -18.515625 C 8.035156 -19.117188 8.738281 -19.566406 9.5 -19.859375 C 10.257812 -20.160156 11 -20.3125 11.71875 -20.3125 C 13.164062 -20.3125 14.238281 -19.769531 14.9375 -18.6875 C 15.644531 -17.601562 16 -16.1875 16 -14.4375 L 16 -5.84375 C 16 -3.925781 15.617188 -2.414062 14.859375 -1.3125 C 14.097656 -0.207031 13.023438 0.34375 11.640625 0.34375 C 10.234375 0.34375 8.816406 -0.273438 7.390625 -1.515625 L 7.390625 6.5625 L 1.765625 6.5625 Z M 8.875 -3.28125 C 9.382812 -3.28125 9.757812 -3.488281 10 -3.90625 C 10.238281 -4.320312 10.359375 -4.863281 10.359375 -5.53125 L 10.359375 -14.859375 C 10.359375 -15.453125 10.242188 -15.941406 10.015625 -16.328125 C 9.785156 -16.722656 9.441406 -16.921875 8.984375 -16.921875 C 8.429688 -16.921875 7.898438 -16.691406 7.390625 -16.234375 L 7.390625 -3.796875 C 7.921875 -3.453125 8.414062 -3.28125 8.875 -3.28125 Z M 8.875 -3.28125 "/></g></g></g><g fill="#d9d9d9" fill-opacity="1"><g transform="translate(209.42607, 135.125214)"><g><path d="M 2 -27.984375 L 7.59375 -27.984375 L 7.59375 0 L 2 0 Z M 2 -27.984375 "/></g></g></g><g fill="#d9d9d9" fill-opacity="1"><g transform="translate(221.379996, 135.125214)"><g><path d="M 1.765625 -27.25 L 7.421875 -27.25 L 7.421875 -23.359375 L 1.765625 -23.359375 Z M 1.796875 -19.96875 L 7.421875 -19.96875 L 7.421875 0 L 1.796875 0 Z M 1.796875 -19.96875 "/></g></g></g><g fill="#d9d9d9" fill-opacity="1"><g transform="translate(233.022985, 135.125214)"><g><path d="M 5.875 0.34375 C 4.90625 0.34375 4.066406 0.109375 3.359375 -0.359375 C 2.660156 -0.835938 2.132812 -1.445312 1.78125 -2.1875 C 1.425781 -2.9375 1.25 -3.71875 1.25 -4.53125 C 1.25 -6.070312 1.640625 -7.335938 2.421875 -8.328125 C 3.203125 -9.316406 4.140625 -10.085938 5.234375 -10.640625 C 6.328125 -11.191406 7.738281 -11.769531 9.46875 -12.375 L 9.46875 -14.375 C 9.46875 -14.945312 9.378906 -15.382812 9.203125 -15.6875 C 9.035156 -15.988281 8.734375 -16.140625 8.296875 -16.140625 C 7.859375 -16.140625 7.546875 -16 7.359375 -15.71875 C 7.171875 -15.4375 7.066406 -15.046875 7.046875 -14.546875 L 6.90625 -13.09375 L 1.65625 -13.296875 C 1.75 -15.691406 2.378906 -17.457031 3.546875 -18.59375 C 4.722656 -19.738281 6.476562 -20.3125 8.8125 -20.3125 C 10.769531 -20.3125 12.265625 -19.765625 13.296875 -18.671875 C 14.335938 -17.578125 14.859375 -16.117188 14.859375 -14.296875 L 14.859375 -4.96875 C 14.859375 -2.945312 14.972656 -1.289062 15.203125 0 L 10.15625 0 C 9.945312 -1.539062 9.796875 -2.484375 9.703125 -2.828125 C 9.429688 -1.910156 8.972656 -1.148438 8.328125 -0.546875 C 7.679688 0.046875 6.863281 0.34375 5.875 0.34375 Z M 7.875 -3.453125 C 8.445312 -3.453125 8.976562 -3.785156 9.46875 -4.453125 L 9.46875 -9.921875 C 8.425781 -9.316406 7.640625 -8.6875 7.109375 -8.03125 C 6.585938 -7.375 6.328125 -6.570312 6.328125 -5.625 C 6.328125 -4.957031 6.460938 -4.425781 6.734375 -4.03125 C 7.015625 -3.644531 7.394531 -3.453125 7.875 -3.453125 Z M 7.875 -3.453125 "/></g></g></g><g fill="#d9d9d9" fill-opacity="1"><g transform="translate(251.95538, 135.125214)"><g><path d="M 1.765625 -19.96875 L 7.390625 -19.96875 L 7.390625 -17.96875 C 8.960938 -19.53125 10.5625 -20.3125 12.1875 -20.3125 C 13.382812 -20.3125 14.300781 -19.878906 14.9375 -19.015625 C 15.570312 -18.148438 15.890625 -17.03125 15.890625 -15.65625 L 15.890625 0 L 10.296875 0 L 10.296875 -14.859375 C 10.296875 -15.359375 10.207031 -15.726562 10.03125 -15.96875 C 9.863281 -16.21875 9.570312 -16.34375 9.15625 -16.34375 C 8.695312 -16.34375 8.109375 -16.097656 7.390625 -15.609375 L 7.390625 0 L 1.765625 0 Z M 1.765625 -19.96875 "/></g></g></g><g fill="#d9d9d9" fill-opacity="1"><g transform="translate(271.958713, 135.125214)"><g><path d="M 8.25 0.34375 C 6.09375 0.34375 4.398438 -0.238281 3.171875 -1.40625 C 1.953125 -2.582031 1.34375 -4.222656 1.34375 -6.328125 L 1.34375 -13.640625 C 1.34375 -15.765625 1.945312 -17.40625 3.15625 -18.5625 C 4.363281 -19.726562 6.0625 -20.3125 8.25 -20.3125 C 10.414062 -20.3125 12.082031 -19.800781 13.25 -18.78125 C 14.414062 -17.769531 15 -16.273438 15 -14.296875 L 15 -12.1875 L 9.5625 -12.1875 L 9.5625 -14.46875 C 9.5625 -15.226562 9.453125 -15.753906 9.234375 -16.046875 C 9.015625 -16.335938 8.6875 -16.484375 8.25 -16.484375 C 7.8125 -16.484375 7.492188 -16.300781 7.296875 -15.9375 C 7.109375 -15.582031 7.015625 -14.976562 7.015625 -14.125 L 7.015625 -5.84375 C 7.015625 -4.988281 7.117188 -4.390625 7.328125 -4.046875 C 7.535156 -3.703125 7.859375 -3.53125 8.296875 -3.53125 C 8.734375 -3.53125 9.050781 -3.675781 9.25 -3.96875 C 9.457031 -4.269531 9.5625 -4.78125 9.5625 -5.5 L 9.5625 -8.15625 L 15 -8.15625 L 15 -5.734375 C 15 -3.753906 14.410156 -2.242188 13.234375 -1.203125 C 12.054688 -0.171875 10.394531 0.34375 8.25 0.34375 Z M 8.25 0.34375 "/></g></g></g><g fill="#d9d9d9" fill-opacity="1"><g transform="translate(290.614733, 135.125214)"><g><path d="M 8.296875 0.34375 C 6.109375 0.34375 4.398438 -0.234375 3.171875 -1.390625 C 1.953125 -2.554688 1.34375 -4.203125 1.34375 -6.328125 L 1.34375 -13.640625 C 1.34375 -15.765625 1.953125 -17.40625 3.171875 -18.5625 C 4.398438 -19.726562 6.109375 -20.3125 8.296875 -20.3125 C 10.503906 -20.3125 12.160156 -19.742188 13.265625 -18.609375 C 14.367188 -17.484375 14.921875 -15.828125 14.921875 -13.640625 L 14.921875 -9.640625 L 6.90625 -9.640625 L 6.90625 -5.796875 C 6.90625 -4.367188 7.367188 -3.65625 8.296875 -3.65625 C 9.265625 -3.65625 9.75 -4.300781 9.75 -5.59375 L 9.75 -7.703125 L 14.921875 -7.703125 L 14.921875 -5.765625 C 14.921875 -3.765625 14.335938 -2.242188 13.171875 -1.203125 C 12.015625 -0.171875 10.390625 0.34375 8.296875 0.34375 Z M 9.75 -12.265625 L 9.75 -14.265625 C 9.75 -15.003906 9.613281 -15.53125 9.34375 -15.84375 C 9.082031 -16.15625 8.71875 -16.3125 8.25 -16.3125 C 7.8125 -16.3125 7.476562 -16.132812 7.25 -15.78125 C 7.019531 -15.4375 6.90625 -14.828125 6.90625 -13.953125 L 6.90625 -12.265625 Z M 9.75 -12.265625 "/></g></g></g><g fill="#d9d9d9" fill-opacity="1"><g transform="translate(309.33983, 135.125214)"><g/></g></g><g fill="#d9d9d9" fill-opacity="1"><g transform="translate(320.671906, 135.125214)"><g><path d="M 2.25 -27.984375 L 6.84375 -27.984375 L 6.84375 6.21875 L 2.21875 6.21875 Z M 2.25 -27.984375 "/></g></g></g><g fill="#d9d9d9" fill-opacity="1"><g transform="translate(332.211258, 135.125214)"><g/></g></g><g fill="#d9d9d9" fill-opacity="1"><g transform="translate(343.543334, 135.125214)"><g><path d="M 4.59375 -23.390625 L 0.375 -23.390625 L 0.375 -27.984375 L 15 -27.984375 L 15 -23.390625 L 10.8125 -23.390625 L 10.8125 0 L 4.59375 0 Z M 4.59375 -23.390625 "/></g></g></g><g fill="#d9d9d9" fill-opacity="1"><g transform="translate(361.404768, 135.125214)"><g><path d="M 8.296875 0.34375 C 6.109375 0.34375 4.398438 -0.234375 3.171875 -1.390625 C 1.953125 -2.554688 1.34375 -4.203125 1.34375 -6.328125 L 1.34375 -13.640625 C 1.34375 -15.765625 1.953125 -17.40625 3.171875 -18.5625 C 4.398438 -19.726562 6.109375 -20.3125 8.296875 -20.3125 C 10.503906 -20.3125 12.160156 -19.742188 13.265625 -18.609375 C 14.367188 -17.484375 14.921875 -15.828125 14.921875 -13.640625 L 14.921875 -9.640625 L 6.90625 -9.640625 L 6.90625 -5.796875 C 6.90625 -4.367188 7.367188 -3.65625 8.296875 -3.65625 C 9.265625 -3.65625 9.75 -4.300781 9.75 -5.59375 L 9.75 -7.703125 L 14.921875 -7.703125 L 14.921875 -5.765625 C 14.921875 -3.765625 14.335938 -2.242188 13.171875 -1.203125 C 12.015625 -0.171875 10.390625 0.34375 8.296875 0.34375 Z M 9.75 -12.265625 L 9.75 -14.265625 C 9.75 -15.003906 9.613281 -15.53125 9.34375 -15.84375 C 9.082031 -16.15625 8.71875 -16.3125 8.25 -16.3125 C 7.8125 -16.3125 7.476562 -16.132812 7.25 -15.78125 C 7.019531 -15.4375 6.90625 -14.828125 6.90625 -13.953125 L 6.90625 -12.265625 Z M 9.75 -12.265625 "/></g></g></g><g fill="#d9d9d9" fill-opacity="1"><g transform="translate(380.129888, 135.125214)"><g><path d="M 8.25 0.34375 C 6.09375 0.34375 4.398438 -0.238281 3.171875 -1.40625 C 1.953125 -2.582031 1.34375 -4.222656 1.34375 -6.328125 L 1.34375 -13.640625 C 1.34375 -15.765625 1.945312 -17.40625 3.15625 -18.5625 C 4.363281 -19.726562 6.0625 -20.3125 8.25 -20.3125 C 10.414062 -20.3125 12.082031 -19.800781 13.25 -18.78125 C 14.414062 -17.769531 15 -16.273438 15 -14.296875 L 15 -12.1875 L 9.5625 -12.1875 L 9.5625 -14.46875 C 9.5625 -15.226562 9.453125 -15.753906 9.234375 -16.046875 C 9.015625 -16.335938 8.6875 -16.484375 8.25 -16.484375 C 7.8125 -16.484375 7.492188 -16.300781 7.296875 -15.9375 C 7.109375 -15.582031 7.015625 -14.976562 7.015625 -14.125 L 7.015625 -5.84375 C 7.015625 -4.988281 7.117188 -4.390625 7.328125 -4.046875 C 7.535156 -3.703125 7.859375 -3.53125 8.296875 -3.53125 C 8.734375 -3.53125 9.050781 -3.675781 9.25 -3.96875 C 9.457031 -4.269531 9.5625 -4.78125 9.5625 -5.5 L 9.5625 -8.15625 L 15 -8.15625 L 15 -5.734375 C 15 -3.753906 14.410156 -2.242188 13.234375 -1.203125 C 12.054688 -0.171875 10.394531 0.34375 8.25 0.34375 Z M 8.25 0.34375 "/></g></g></g><g fill="#d9d9d9" fill-opacity="1"><g transform="translate(398.785885, 135.125214)"><g><path d="M 1.796875 -27.984375 L 7.390625 -27.984375 L 7.390625 -18.203125 C 8.796875 -19.609375 10.429688 -20.3125 12.296875 -20.3125 C 13.453125 -20.3125 14.347656 -19.878906 14.984375 -19.015625 C 15.628906 -18.148438 15.953125 -17.03125 15.953125 -15.65625 L 15.953125 0 L 10.359375 0 L 10.359375 -14.859375 C 10.359375 -15.359375 10.269531 -15.726562 10.09375 -15.96875 C 9.925781 -16.21875 9.632812 -16.34375 9.21875 -16.34375 C 8.738281 -16.34375 8.128906 -16.097656 7.390625 -15.609375 L 7.390625 0 L 1.796875 0 Z M 1.796875 -27.984375 "/></g></g></g></svg>