<svg xmlns="http://www.w3.org/2000/svg" xmlns:xlink="http://www.w3.org/1999/xlink" width="2000" zoomAndPan="magnify" viewBox="0 0 1500 1499.999933" height="2000" preserveAspectRatio="xMidYMid meet" version="1.0"><defs><clipPath id="1febd5f3ca"><path d="M 123.742188 186.105469 L 1323.742188 186.105469 L 1323.742188 1386.105469 L 123.742188 1386.105469 Z M 123.742188 186.105469 " clip-rule="nonzero"/></clipPath><clipPath id="d9a91f0468"><path d="M 723.742188 186.105469 C 392.371094 186.105469 123.742188 454.734375 123.742188 786.105469 C 123.742188 1117.476562 392.371094 1386.105469 723.742188 1386.105469 C 1055.113281 1386.105469 1323.742188 1117.476562 1323.742188 786.105469 C 1323.742188 454.734375 1055.113281 186.105469 723.742188 186.105469 Z M 723.742188 186.105469 " clip-rule="nonzero"/></clipPath><clipPath id="65dbc40444"><path d="M 0.742188 0.105469 L 1200.742188 0.105469 L 1200.742188 1200.105469 L 0.742188 1200.105469 Z M 0.742188 0.105469 " clip-rule="nonzero"/></clipPath><clipPath id="667641caf7"><path d="M 600.742188 0.105469 C 269.371094 0.105469 0.742188 268.734375 0.742188 600.105469 C 0.742188 931.476562 269.371094 1200.105469 600.742188 1200.105469 C 932.113281 1200.105469 1200.742188 931.476562 1200.742188 600.105469 C 1200.742188 268.734375 932.113281 0.105469 600.742188 0.105469 Z M 600.742188 0.105469 " clip-rule="nonzero"/></clipPath><clipPath id="6abc0e909b"><rect x="0" width="1201" y="0" height="1201"/></clipPath><clipPath id="f20d90660c"><path d="M 911 939 L 1090 939 L 1090 1117 L 911 1117 Z M 911 939 " clip-rule="nonzero"/></clipPath><clipPath id="e7b26cbcf0"><path d="M 967.492188 906.777344 L 1121.988281 996.144531 L 1033.316406 1149.441406 L 878.820312 1060.074219 Z M 967.492188 906.777344 " clip-rule="nonzero"/></clipPath><clipPath id="90ebd02c19"><path d="M 1068.460938 971.34375 L 1068.46875 971.347656 C 1075.078125 979.246094 1080.269531 988.226562 1083.820312 997.894531 C 1087.367188 1007.5625 1089.179688 1017.777344 1089.183594 1028.070312 L 1089.183594 1028.433594 C 1089.1875 1038.707031 1087.378906 1048.898438 1083.84375 1058.539062 C 1080.304688 1068.1875 1075.128906 1077.152344 1068.542969 1085.035156 L 1068.417969 1085.1875 C 1061.800781 1093.109375 1053.816406 1099.78125 1044.847656 1104.882812 L 1044.8125 1104.902344 C 1035.859375 1109.996094 1026.09375 1113.492188 1015.941406 1115.238281 C 1005.792969 1116.980469 995.417969 1116.957031 985.277344 1115.164062 L 985.269531 1115.164062 C 975.125 1113.371094 965.371094 1109.816406 956.457031 1104.65625 L 956.136719 1104.472656 C 947.21875 1099.316406 939.273438 1092.636719 932.664062 1084.734375 L 932.660156 1084.730469 C 926.050781 1076.832031 920.855469 1067.851562 917.308594 1058.183594 C 913.757812 1048.515625 911.921875 1038.304688 911.871094 1028.003906 L 911.871094 1027.964844 C 911.824219 1017.644531 913.625 1007.398438 917.191406 997.714844 L 917.261719 997.527344 C 920.8125 987.886719 926 978.929688 932.601562 971.054688 C 939.199219 963.183594 947.128906 956.535156 956.035156 951.414062 L 956.347656 951.234375 C 965.273438 946.101562 975.035156 942.585938 985.183594 940.839844 C 995.332031 939.09375 1005.707031 939.121094 1015.847656 940.910156 L 1015.855469 940.914062 C 1026 942.707031 1035.753906 946.261719 1044.671875 951.417969 L 1044.988281 951.605469 C 1053.90625 956.761719 1061.851562 963.441406 1068.460938 971.34375 Z M 1068.460938 971.34375 " clip-rule="nonzero"/></clipPath><clipPath id="19e90a457c"><path d="M 0.761719 0 L 178.359375 0 L 178.359375 178 L 0.761719 178 Z M 0.761719 0 " clip-rule="nonzero"/></clipPath><clipPath id="010cf3b807"><path d="M 56.492188 -32.222656 L 210.988281 57.144531 L 122.316406 210.441406 L -32.179688 121.074219 Z M 56.492188 -32.222656 " clip-rule="nonzero"/></clipPath><clipPath id="6963f0e873"><path d="M 157.460938 32.34375 L 157.46875 32.347656 C 164.078125 40.246094 169.269531 49.226562 172.820312 58.894531 C 176.367188 68.5625 178.179688 78.777344 178.183594 89.070312 L 178.183594 89.433594 C 178.1875 99.707031 176.378906 109.898438 172.84375 119.539062 C 169.304688 129.1875 164.128906 138.152344 157.542969 146.035156 L 157.417969 146.1875 C 150.800781 154.109375 142.816406 160.78125 133.847656 165.882812 L 133.8125 165.902344 C 124.859375 170.996094 115.09375 174.492188 104.941406 176.238281 C 94.792969 177.980469 84.417969 177.957031 74.277344 176.164062 L 74.269531 176.164062 C 64.125 174.371094 54.371094 170.816406 45.457031 165.65625 L 45.136719 165.472656 C 36.21875 160.316406 28.273438 153.636719 21.664062 145.734375 L 21.660156 145.730469 C 15.050781 137.832031 9.855469 128.851562 6.308594 119.183594 C 2.757812 109.515625 0.921875 99.304688 0.871094 89.003906 L 0.871094 88.964844 C 0.824219 78.644531 2.625 68.398438 6.191406 58.714844 L 6.261719 58.527344 C 9.8125 48.886719 15 39.929688 21.601562 32.054688 C 28.199219 24.183594 36.128906 17.535156 45.035156 12.414062 L 45.347656 12.234375 C 54.273438 7.101562 64.035156 3.585938 74.183594 1.839844 C 84.332031 0.09375 94.707031 0.121094 104.847656 1.910156 L 104.855469 1.914062 C 115 3.707031 124.753906 7.261719 133.671875 12.417969 L 133.988281 12.605469 C 142.90625 17.761719 150.851562 24.441406 157.460938 32.34375 Z M 157.460938 32.34375 " clip-rule="nonzero"/></clipPath><clipPath id="d1a36beed6"><rect x="0" width="179" y="0" height="178"/></clipPath><clipPath id="ce0c67c7ea"><path d="M 358 456 L 536 456 L 536 634 L 358 634 Z M 358 456 " clip-rule="nonzero"/></clipPath><clipPath id="22f31da576"><path d="M 414 423.609375 L 568.425781 512.933594 L 479.792969 666.160156 L 325.367188 576.835938 Z M 414 423.609375 " clip-rule="nonzero"/></clipPath><clipPath id="80ec5bdcf5"><path d="M 514.972656 488.171875 L 514.976562 488.179688 C 521.585938 496.074219 526.78125 505.054688 530.332031 514.71875 C 533.878906 524.382812 535.699219 534.59375 535.703125 544.886719 L 535.703125 545.25 C 535.707031 555.515625 533.902344 565.703125 530.367188 575.34375 C 526.832031 584.984375 521.660156 593.945312 515.074219 601.828125 L 514.949219 601.976562 C 508.335938 609.894531 500.355469 616.5625 491.386719 621.664062 L 491.351562 621.683594 C 482.402344 626.769531 472.632812 630.265625 462.488281 632.007812 C 452.339844 633.75 441.964844 633.722656 431.824219 631.929688 L 431.816406 631.929688 C 421.671875 630.132812 411.921875 626.578125 403.003906 621.421875 L 402.683594 621.234375 C 393.769531 616.078125 385.824219 609.398438 379.210938 601.5 L 379.203125 601.492188 C 372.59375 593.597656 367.398438 584.617188 363.851562 574.953125 C 360.300781 565.289062 358.460938 555.078125 358.410156 544.78125 L 358.410156 544.742188 C 358.359375 534.425781 360.160156 524.183594 363.722656 514.503906 L 363.792969 514.320312 C 367.339844 504.683594 372.527344 495.730469 379.125 487.859375 C 385.71875 479.988281 393.648438 473.34375 402.550781 468.230469 L 402.863281 468.050781 C 411.789062 462.921875 421.550781 459.40625 431.695312 457.664062 C 441.84375 455.921875 452.214844 455.949219 462.355469 457.742188 L 462.367188 457.742188 C 472.507812 459.535156 482.261719 463.09375 491.175781 468.25 L 491.496094 468.4375 C 500.414062 473.59375 508.359375 480.273438 514.972656 488.171875 Z M 514.972656 488.171875 " clip-rule="nonzero"/></clipPath><clipPath id="c9e01c1a07"><path d="M 0.320312 0 L 177.921875 0 L 177.921875 177.839844 L 0.320312 177.839844 Z M 0.320312 0 " clip-rule="nonzero"/></clipPath><clipPath id="f9a24e88de"><path d="M 56 -32.390625 L 210.425781 56.933594 L 121.792969 210.160156 L -32.632812 120.835938 Z M 56 -32.390625 " clip-rule="nonzero"/></clipPath><clipPath id="3eb6135d1a"><path d="M 156.972656 32.171875 L 156.976562 32.179688 C 163.585938 40.074219 168.78125 49.054688 172.332031 58.71875 C 175.878906 68.382812 177.699219 78.59375 177.703125 88.886719 L 177.703125 89.25 C 177.707031 99.515625 175.902344 109.703125 172.367188 119.34375 C 168.832031 128.984375 163.660156 137.945312 157.074219 145.828125 L 156.949219 145.976562 C 150.335938 153.894531 142.355469 160.5625 133.386719 165.664062 L 133.351562 165.683594 C 124.402344 170.769531 114.632812 174.265625 104.488281 176.007812 C 94.339844 177.75 83.964844 177.722656 73.824219 175.929688 L 73.816406 175.929688 C 63.671875 174.132812 53.921875 170.578125 45.003906 165.421875 L 44.683594 165.234375 C 35.769531 160.078125 27.824219 153.398438 21.210938 145.5 L 21.203125 145.492188 C 14.59375 137.597656 9.398438 128.617188 5.851562 118.953125 C 2.300781 109.289062 0.460938 99.078125 0.410156 88.78125 L 0.410156 88.742188 C 0.359375 78.425781 2.160156 68.183594 5.722656 58.503906 L 5.792969 58.320312 C 9.339844 48.683594 14.527344 39.730469 21.125 31.859375 C 27.71875 23.988281 35.648438 17.34375 44.550781 12.230469 L 44.863281 12.050781 C 53.789062 6.921875 63.550781 3.40625 73.695312 1.664062 C 83.84375 -0.078125 94.214844 -0.0507812 104.355469 1.742188 L 104.367188 1.742188 C 114.507812 3.535156 124.261719 7.09375 133.175781 12.25 L 133.496094 12.4375 C 142.414062 17.59375 150.359375 24.273438 156.972656 32.171875 Z M 156.972656 32.171875 " clip-rule="nonzero"/></clipPath><clipPath id="c0ff1bbe11"><rect x="0" width="178" y="0" height="178"/></clipPath><clipPath id="1443cc7579"><path d="M 237 453 L 902 453 L 902 1118 L 237 1118 Z M 237 453 " clip-rule="nonzero"/></clipPath><clipPath id="688043a81f"><path d="M 804.824219 422.304688 L 932.582031 550.0625 L 333.226562 1149.417969 L 205.46875 1021.660156 Z M 804.824219 422.304688 " clip-rule="nonzero"/></clipPath><clipPath id="65244c19bb"><path d="M 879.554688 603.089844 L 386.730469 1095.914062 C 372.664062 1109.976562 353.589844 1117.878906 333.703125 1117.878906 C 313.8125 1117.878906 294.738281 1109.976562 280.671875 1095.914062 L 258.972656 1074.214844 C 244.910156 1060.148438 237.007812 1041.074219 237.007812 1021.183594 C 237.007812 1001.296875 244.910156 982.222656 258.972656 968.15625 L 751.796875 475.332031 C 765.859375 461.269531 784.9375 453.367188 804.824219 453.367188 C 824.714844 453.367188 843.789062 461.269531 857.855469 475.332031 L 879.554688 497.03125 C 893.617188 511.097656 901.519531 530.171875 901.519531 550.0625 C 901.519531 569.949219 893.617188 589.023438 879.554688 603.089844 Z M 879.554688 603.089844 " clip-rule="nonzero"/></clipPath><clipPath id="baefe55c82"><path d="M 0 0.359375 L 664.679688 0.359375 L 664.679688 664.917969 L 0 664.917969 Z M 0 0.359375 " clip-rule="nonzero"/></clipPath><clipPath id="25e966afb6"><path d="M 567.824219 -30.695312 L 695.582031 97.0625 L 96.226562 696.417969 L -31.53125 568.660156 Z M 567.824219 -30.695312 " clip-rule="nonzero"/></clipPath><clipPath id="b6ac91f53a"><path d="M 642.554688 150.089844 L 149.730469 642.914062 C 135.664062 656.976562 116.589844 664.878906 96.703125 664.878906 C 76.8125 664.878906 57.738281 656.976562 43.671875 642.914062 L 21.972656 621.214844 C 7.910156 607.148438 0.0078125 588.074219 0.0078125 568.183594 C 0.0078125 548.296875 7.910156 529.222656 21.972656 515.15625 L 514.796875 22.332031 C 528.859375 8.269531 547.9375 0.367188 567.824219 0.367188 C 587.714844 0.367188 606.789062 8.269531 620.855469 22.332031 L 642.554688 44.03125 C 656.617188 58.097656 664.519531 77.171875 664.519531 97.0625 C 664.519531 116.949219 656.617188 136.023438 642.554688 150.089844 Z M 642.554688 150.089844 " clip-rule="nonzero"/></clipPath><clipPath id="fa7d94198e"><rect x="0" width="665" y="0" height="665"/></clipPath><clipPath id="5579b73d41"><path d="M 545 454 L 1211 454 L 1211 1119 L 545 1119 Z M 545 454 " clip-rule="nonzero"/></clipPath><clipPath id="8644a0d1ba"><path d="M 1113.761719 423.261719 L 1241.53125 551.03125 L 642.621094 1149.941406 L 514.851562 1022.171875 Z M 1113.761719 423.261719 " clip-rule="nonzero"/></clipPath><clipPath id="af1516af8e"><path d="M 1166.796875 476.296875 L 1188.496094 497.996094 C 1202.5625 512.0625 1210.464844 531.140625 1210.464844 551.03125 C 1210.464844 570.921875 1202.5625 590 1188.496094 604.0625 L 695.683594 1096.878906 C 681.617188 1110.941406 662.542969 1118.84375 642.648438 1118.84375 C 622.757812 1118.84375 603.683594 1110.941406 589.617188 1096.878906 L 567.914062 1075.175781 C 553.851562 1061.109375 545.949219 1042.035156 545.949219 1022.144531 C 545.949219 1002.253906 553.851562 983.175781 567.914062 969.109375 L 1060.730469 476.296875 C 1074.796875 462.230469 1093.871094 454.328125 1113.761719 454.328125 C 1133.652344 454.328125 1152.730469 462.230469 1166.796875 476.296875 Z M 1166.796875 476.296875 " clip-rule="nonzero"/></clipPath><clipPath id="9202544550"><path d="M 0.761719 0.320312 L 665.558594 0.320312 L 665.558594 664.878906 L 0.761719 664.878906 Z M 0.761719 0.320312 " clip-rule="nonzero"/></clipPath><clipPath id="6fa56bcf58"><path d="M 568.761719 -30.738281 L 696.53125 97.03125 L 97.621094 695.941406 L -30.148438 568.171875 Z M 568.761719 -30.738281 " clip-rule="nonzero"/></clipPath><clipPath id="26f27c4bc8"><path d="M 621.796875 22.296875 L 643.496094 43.996094 C 657.5625 58.0625 665.464844 77.140625 665.464844 97.03125 C 665.464844 116.921875 657.5625 136 643.496094 150.0625 L 150.683594 642.878906 C 136.617188 656.941406 117.542969 664.84375 97.648438 664.84375 C 77.757812 664.84375 58.683594 656.941406 44.617188 642.878906 L 22.914062 621.175781 C 8.851562 607.109375 0.949219 588.035156 0.949219 568.144531 C 0.949219 548.253906 8.851562 529.175781 22.914062 515.109375 L 515.730469 22.296875 C 529.796875 8.230469 548.871094 0.328125 568.761719 0.328125 C 588.652344 0.328125 607.730469 8.230469 621.796875 22.296875 Z M 621.796875 22.296875 " clip-rule="nonzero"/></clipPath><clipPath id="49751b50e2"><rect x="0" width="666" y="0" height="665"/></clipPath></defs><g clip-path="url(#1febd5f3ca)"><g clip-path="url(#d9a91f0468)"><g transform="matrix(1, 0, 0, 1, 123, 186)"><g clip-path="url(#6abc0e909b)"><g clip-path="url(#65dbc40444)"><g clip-path="url(#667641caf7)"><path fill="#089f6f" d="M 0.742188 0.105469 L 1200.742188 0.105469 L 1200.742188 1200.105469 L 0.742188 1200.105469 Z M 0.742188 0.105469 " fill-opacity="1" fill-rule="nonzero"/></g></g></g></g></g></g><g clip-path="url(#f20d90660c)"><g clip-path="url(#e7b26cbcf0)"><g clip-path="url(#90ebd02c19)"><g transform="matrix(1, 0, 0, 1, 911, 939)"><g clip-path="url(#d1a36beed6)"><g clip-path="url(#19e90a457c)"><g clip-path="url(#010cf3b807)"><g clip-path="url(#6963f0e873)"><path fill="#ffffff" d="M 55.894531 -32.570312 L 211.585938 57.488281 L 122.914062 210.785156 L -32.777344 120.726562 Z M 55.894531 -32.570312 " fill-opacity="1" fill-rule="nonzero"/></g></g></g></g></g></g></g></g><g clip-path="url(#ce0c67c7ea)"><g clip-path="url(#22f31da576)"><g clip-path="url(#80ec5bdcf5)"><g transform="matrix(1, 0, 0, 1, 358, 456)"><g clip-path="url(#c0ff1bbe11)"><g clip-path="url(#c9e01c1a07)"><g clip-path="url(#f9a24e88de)"><g clip-path="url(#3eb6135d1a)"><path fill="#ffffff" d="M 55.402344 -32.738281 L 211.023438 57.28125 L 122.390625 210.507812 L -33.230469 120.488281 Z M 55.402344 -32.738281 " fill-opacity="1" fill-rule="nonzero"/></g></g></g></g></g></g></g></g><g clip-path="url(#1443cc7579)"><g clip-path="url(#688043a81f)"><g clip-path="url(#65244c19bb)"><g transform="matrix(1, 0, 0, 1, 237, 453)"><g clip-path="url(#fa7d94198e)"><g clip-path="url(#baefe55c82)"><g clip-path="url(#25e966afb6)"><g clip-path="url(#b6ac91f53a)"><path fill="#ffffff" d="M 567.824219 -30.695312 L 695.582031 97.0625 L 96.726562 695.917969 L -31.03125 568.160156 Z M 567.824219 -30.695312 " fill-opacity="1" fill-rule="nonzero"/></g></g></g></g></g></g></g></g><g clip-path="url(#5579b73d41)"><g clip-path="url(#8644a0d1ba)"><g clip-path="url(#af1516af8e)"><g transform="matrix(1, 0, 0, 1, 545, 454)"><g clip-path="url(#49751b50e2)"><g clip-path="url(#9202544550)"><g clip-path="url(#6fa56bcf58)"><g clip-path="url(#26f27c4bc8)"><path fill="#ffffff" d="M 568.761719 -30.738281 L 696.53125 97.03125 L 97.621094 695.941406 L -30.148438 568.171875 Z M 568.761719 -30.738281 " fill-opacity="1" fill-rule="nonzero"/></g></g></g></g></g></g></g></g></svg>