<svg xmlns="http://www.w3.org/2000/svg" xmlns:xlink="http://www.w3.org/1999/xlink" width="2000" zoomAndPan="magnify" viewBox="0 0 1500 1499.999933" height="2000" preserveAspectRatio="xMidYMid meet" version="1.0"><defs><clipPath id="bd66fa4f7b"><path d="M 150 150 L 1350 150 L 1350 1350 L 150 1350 Z M 150 150 " clip-rule="nonzero"/></clipPath><clipPath id="1b3133d1d0"><path d="M 220.5 150 L 1279.5 150 C 1318.4375 150 1350 181.5625 1350 220.5 L 1350 1279.5 C 1350 1318.4375 1318.4375 1350 1279.5 1350 L 220.5 1350 C 181.5625 1350 150 1318.4375 150 1279.5 L 150 220.5 C 150 181.5625 181.5625 150 220.5 150 Z M 220.5 150 " clip-rule="nonzero"/></clipPath><clipPath id="20bb4f8a16"><path d="M 0 0 L 1200 0 L 1200 1200 L 0 1200 Z M 0 0 " clip-rule="nonzero"/></clipPath><clipPath id="9f5c2f3c13"><path d="M 70.5 0 L 1129.5 0 C 1168.4375 0 1200 31.5625 1200 70.5 L 1200 1129.5 C 1200 1168.4375 1168.4375 1200 1129.5 1200 L 70.5 1200 C 31.5625 1200 0 1168.4375 0 1129.5 L 0 70.5 C 0 31.5625 31.5625 0 70.5 0 Z M 70.5 0 " clip-rule="nonzero"/></clipPath><linearGradient x1="128" gradientTransform="matrix(4.6875, 0, 0, 4.6875, 0.00002043, -0.00003292)" y1="0.000000000000003553" x2="128" gradientUnits="userSpaceOnUse" y2="256" id="f2741b5cce"><stop stop-opacity="1" stop-color="rgb(1.959229%, 58.81958%, 41.178894%)" offset="0"/><stop stop-opacity="1" stop-color="rgb(1.992798%, 58.926392%, 41.252136%)" offset="0.015625"/><stop stop-opacity="1" stop-color="rgb(2.059937%, 59.140015%, 41.400146%)" offset="0.03125"/><stop stop-opacity="1" stop-color="rgb(2.127075%, 59.355164%, 41.546631%)" offset="0.046875"/><stop stop-opacity="1" stop-color="rgb(2.194214%, 59.570312%, 41.693115%)" offset="0.0625"/><stop stop-opacity="1" stop-color="rgb(2.262878%, 59.783936%, 41.841125%)" offset="0.078125"/><stop stop-opacity="1" stop-color="rgb(2.330017%, 59.999084%, 41.98761%)" offset="0.09375"/><stop stop-opacity="1" stop-color="rgb(2.397156%, 60.212708%, 42.134094%)" offset="0.109375"/><stop stop-opacity="1" stop-color="rgb(2.464294%, 60.427856%, 42.282104%)" offset="0.125"/><stop stop-opacity="1" stop-color="rgb(2.531433%, 60.643005%, 42.428589%)" offset="0.140625"/><stop stop-opacity="1" stop-color="rgb(2.598572%, 60.856628%, 42.575073%)" offset="0.15625"/><stop stop-opacity="1" stop-color="rgb(2.66571%, 61.071777%, 42.723083%)" offset="0.171875"/><stop stop-opacity="1" stop-color="rgb(2.732849%, 61.2854%, 42.869568%)" offset="0.1875"/><stop stop-opacity="1" stop-color="rgb(2.801514%, 61.500549%, 43.017578%)" offset="0.203125"/><stop stop-opacity="1" stop-color="rgb(2.868652%, 61.715698%, 43.164062%)" offset="0.21875"/><stop stop-opacity="1" stop-color="rgb(2.935791%, 61.929321%, 43.310547%)" offset="0.234375"/><stop stop-opacity="1" stop-color="rgb(3.00293%, 62.14447%, 43.458557%)" offset="0.25"/><stop stop-opacity="1" stop-color="rgb(3.070068%, 62.358093%, 43.605042%)" offset="0.265625"/><stop stop-opacity="1" stop-color="rgb(3.137207%, 62.573242%, 43.751526%)" offset="0.28125"/><stop stop-opacity="1" stop-color="rgb(3.204346%, 62.786865%, 43.899536%)" offset="0.296875"/><stop stop-opacity="1" stop-color="rgb(3.27301%, 63.002014%, 44.046021%)" offset="0.3125"/><stop stop-opacity="1" stop-color="rgb(3.340149%, 63.217163%, 44.192505%)" offset="0.328125"/><stop stop-opacity="1" stop-color="rgb(3.407288%, 63.430786%, 44.340515%)" offset="0.34375"/><stop stop-opacity="1" stop-color="rgb(3.474426%, 63.645935%, 44.487%)" offset="0.359375"/><stop stop-opacity="1" stop-color="rgb(3.541565%, 63.859558%, 44.633484%)" offset="0.375"/><stop stop-opacity="1" stop-color="rgb(3.608704%, 64.074707%, 44.781494%)" offset="0.390625"/><stop stop-opacity="1" stop-color="rgb(3.675842%, 64.289856%, 44.927979%)" offset="0.40625"/><stop stop-opacity="1" stop-color="rgb(3.744507%, 64.503479%, 45.075989%)" offset="0.421875"/><stop stop-opacity="1" stop-color="rgb(3.811646%, 64.718628%, 45.222473%)" offset="0.4375"/><stop stop-opacity="1" stop-color="rgb(3.878784%, 64.932251%, 45.368958%)" offset="0.453125"/><stop stop-opacity="1" stop-color="rgb(3.945923%, 65.1474%, 45.516968%)" offset="0.46875"/><stop stop-opacity="1" stop-color="rgb(4.013062%, 65.362549%, 45.663452%)" offset="0.484375"/><stop stop-opacity="1" stop-color="rgb(4.0802%, 65.576172%, 45.809937%)" offset="0.5"/><stop stop-opacity="1" stop-color="rgb(4.147339%, 65.791321%, 45.957947%)" offset="0.515625"/><stop stop-opacity="1" stop-color="rgb(4.214478%, 66.004944%, 46.104431%)" offset="0.53125"/><stop stop-opacity="1" stop-color="rgb(4.283142%, 66.220093%, 46.250916%)" offset="0.546875"/><stop stop-opacity="1" stop-color="rgb(4.350281%, 66.435242%, 46.398926%)" offset="0.5625"/><stop stop-opacity="1" stop-color="rgb(4.417419%, 66.648865%, 46.54541%)" offset="0.578125"/><stop stop-opacity="1" stop-color="rgb(4.484558%, 66.864014%, 46.691895%)" offset="0.59375"/><stop stop-opacity="1" stop-color="rgb(4.551697%, 67.077637%, 46.839905%)" offset="0.609375"/><stop stop-opacity="1" stop-color="rgb(4.618835%, 67.292786%, 46.986389%)" offset="0.625"/><stop stop-opacity="1" stop-color="rgb(4.685974%, 67.507935%, 47.134399%)" offset="0.640625"/><stop stop-opacity="1" stop-color="rgb(4.754639%, 67.721558%, 47.280884%)" offset="0.65625"/><stop stop-opacity="1" stop-color="rgb(4.821777%, 67.936707%, 47.427368%)" offset="0.671875"/><stop stop-opacity="1" stop-color="rgb(4.888916%, 68.15033%, 47.575378%)" offset="0.6875"/><stop stop-opacity="1" stop-color="rgb(4.956055%, 68.365479%, 47.721863%)" offset="0.703125"/><stop stop-opacity="1" stop-color="rgb(5.023193%, 68.580627%, 47.868347%)" offset="0.71875"/><stop stop-opacity="1" stop-color="rgb(5.090332%, 68.79425%, 48.016357%)" offset="0.734375"/><stop stop-opacity="1" stop-color="rgb(5.157471%, 69.009399%, 48.162842%)" offset="0.75"/><stop stop-opacity="1" stop-color="rgb(5.224609%, 69.223022%, 48.309326%)" offset="0.765625"/><stop stop-opacity="1" stop-color="rgb(5.293274%, 69.438171%, 48.457336%)" offset="0.78125"/><stop stop-opacity="1" stop-color="rgb(5.360413%, 69.65332%, 48.603821%)" offset="0.796875"/><stop stop-opacity="1" stop-color="rgb(5.427551%, 69.866943%, 48.751831%)" offset="0.8125"/><stop stop-opacity="1" stop-color="rgb(5.49469%, 70.082092%, 48.898315%)" offset="0.828125"/><stop stop-opacity="1" stop-color="rgb(5.561829%, 70.295715%, 49.0448%)" offset="0.84375"/><stop stop-opacity="1" stop-color="rgb(5.628967%, 70.510864%, 49.19281%)" offset="0.859375"/><stop stop-opacity="1" stop-color="rgb(5.696106%, 70.726013%, 49.339294%)" offset="0.875"/><stop stop-opacity="1" stop-color="rgb(5.764771%, 70.939636%, 49.485779%)" offset="0.890625"/><stop stop-opacity="1" stop-color="rgb(5.831909%, 71.154785%, 49.633789%)" offset="0.90625"/><stop stop-opacity="1" stop-color="rgb(5.899048%, 71.368408%, 49.780273%)" offset="0.921875"/><stop stop-opacity="1" stop-color="rgb(5.966187%, 71.583557%, 49.926758%)" offset="0.9375"/><stop stop-opacity="1" stop-color="rgb(6.033325%, 71.79718%, 50.074768%)" offset="0.953125"/><stop stop-opacity="1" stop-color="rgb(6.100464%, 72.012329%, 50.221252%)" offset="0.96875"/><stop stop-opacity="1" stop-color="rgb(6.167603%, 72.227478%, 50.367737%)" offset="0.984375"/><stop stop-opacity="1" stop-color="rgb(6.234741%, 72.441101%, 50.515747%)" offset="1"/></linearGradient><clipPath id="80ae7f4564"><rect x="0" width="1200" y="0" height="1200"/></clipPath><clipPath id="da11822087"><path d="M 938 903 L 1116 903 L 1116 1081 L 938 1081 Z M 938 903 " clip-rule="nonzero"/></clipPath><clipPath id="314bd753e6"><path d="M 993.75 870.671875 L 1148.246094 960.039062 L 1059.574219 1113.335938 L 905.078125 1023.96875 Z M 993.75 870.671875 " clip-rule="nonzero"/></clipPath><clipPath id="eaa7b6a491"><path d="M 1094.71875 935.238281 L 1094.726562 935.242188 C 1101.335938 943.140625 1106.527344 952.121094 1110.078125 961.789062 C 1113.625 971.457031 1115.441406 981.671875 1115.441406 991.964844 L 1115.441406 992.328125 C 1115.445312 1002.601562 1113.636719 1012.792969 1110.101562 1022.433594 C 1106.5625 1032.082031 1101.386719 1041.046875 1094.800781 1048.929688 L 1094.675781 1049.082031 C 1088.058594 1057.003906 1080.074219 1063.675781 1071.105469 1068.777344 L 1071.070312 1068.796875 C 1062.117188 1073.890625 1052.351562 1077.386719 1042.203125 1079.132812 C 1032.050781 1080.875 1021.675781 1080.851562 1011.535156 1079.058594 L 1011.527344 1079.058594 C 1001.382812 1077.265625 991.632812 1073.710938 982.714844 1068.550781 L 982.394531 1068.367188 C 973.476562 1063.210938 965.535156 1056.53125 958.921875 1048.628906 L 958.917969 1048.625 C 952.308594 1040.726562 947.113281 1031.746094 943.566406 1022.078125 C 940.019531 1012.410156 938.179688 1002.199219 938.128906 991.902344 L 938.128906 991.859375 C 938.082031 981.539062 939.882812 971.292969 943.449219 961.609375 L 943.519531 961.421875 C 947.070312 951.78125 952.261719 942.828125 958.859375 934.949219 C 965.457031 927.078125 973.386719 920.429688 982.292969 915.308594 L 982.609375 915.128906 C 991.535156 910 1001.292969 906.480469 1011.441406 904.734375 C 1021.589844 902.988281 1031.964844 903.015625 1042.105469 904.804688 L 1042.113281 904.808594 C 1052.257812 906.601562 1062.011719 910.15625 1070.929688 915.3125 L 1071.246094 915.5 C 1080.164062 920.65625 1088.109375 927.335938 1094.71875 935.238281 Z M 1094.71875 935.238281 " clip-rule="nonzero"/></clipPath><clipPath id="3446a1798c"><path d="M 0 0 L 177.519531 0 L 177.519531 177.960938 L 0 177.960938 Z M 0 0 " clip-rule="nonzero"/></clipPath><clipPath id="7c5603b479"><path d="M 55.75 -32.328125 L 210.246094 57.039062 L 121.574219 210.335938 L -32.921875 120.96875 Z M 55.75 -32.328125 " clip-rule="nonzero"/></clipPath><clipPath id="6b18c1c862"><path d="M 156.71875 32.238281 L 156.726562 32.242188 C 163.335938 40.140625 168.527344 49.121094 172.078125 58.789062 C 175.625 68.457031 177.441406 78.671875 177.441406 88.964844 L 177.441406 89.328125 C 177.445312 99.601562 175.636719 109.792969 172.101562 119.433594 C 168.5625 129.082031 163.386719 138.046875 156.800781 145.929688 L 156.675781 146.082031 C 150.058594 154.003906 142.074219 160.675781 133.105469 165.777344 L 133.070312 165.796875 C 124.117188 170.890625 114.351562 174.386719 104.203125 176.132812 C 94.050781 177.875 83.675781 177.851562 73.535156 176.058594 L 73.527344 176.058594 C 63.382812 174.265625 53.632812 170.710938 44.714844 165.550781 L 44.394531 165.367188 C 35.476562 160.210938 27.535156 153.53125 20.921875 145.628906 L 20.917969 145.625 C 14.308594 137.726562 9.113281 128.746094 5.566406 119.078125 C 2.019531 109.410156 0.179688 99.199219 0.128906 88.902344 L 0.128906 88.859375 C 0.0820312 78.539062 1.882812 68.292969 5.449219 58.609375 L 5.519531 58.421875 C 9.070312 48.78125 14.261719 39.828125 20.859375 31.949219 C 27.457031 24.078125 35.386719 17.429688 44.292969 12.308594 L 44.609375 12.128906 C 53.535156 7 63.292969 3.480469 73.441406 1.734375 C 83.589844 -0.0117188 93.964844 0.015625 104.105469 1.804688 L 104.113281 1.808594 C 114.257812 3.601562 124.011719 7.15625 132.929688 12.3125 L 133.246094 12.5 C 142.164062 17.65625 150.109375 24.335938 156.71875 32.238281 Z M 156.71875 32.238281 " clip-rule="nonzero"/></clipPath><clipPath id="24a76bbf26"><rect x="0" width="178" y="0" height="178"/></clipPath><clipPath id="d17b80d164"><path d="M 384 420 L 562 420 L 562 598 L 384 598 Z M 384 420 " clip-rule="nonzero"/></clipPath><clipPath id="c587a1d04d"><path d="M 440.257812 387.503906 L 594.683594 476.828125 L 506.050781 630.058594 L 351.625 540.730469 Z M 440.257812 387.503906 " clip-rule="nonzero"/></clipPath><clipPath id="07f0b9e2ef"><path d="M 541.230469 452.066406 L 541.234375 452.074219 C 547.84375 459.96875 553.039062 468.949219 556.589844 478.613281 C 560.136719 488.277344 561.957031 498.488281 561.960938 508.785156 L 561.960938 509.144531 C 561.964844 519.410156 560.160156 529.597656 556.625 539.238281 C 553.089844 548.882812 547.917969 557.839844 541.332031 565.722656 L 541.207031 565.875 C 534.59375 573.789062 526.613281 580.457031 517.644531 585.558594 L 517.609375 585.578125 C 508.660156 590.667969 498.890625 594.160156 488.746094 595.902344 C 478.597656 597.644531 468.222656 597.617188 458.085938 595.824219 L 458.074219 595.824219 C 447.929688 594.03125 438.179688 590.472656 429.261719 585.316406 L 428.941406 585.128906 C 420.027344 579.972656 412.082031 573.292969 405.46875 565.394531 L 405.460938 565.386719 C 398.851562 557.492188 393.660156 548.511719 390.109375 538.847656 C 386.558594 529.183594 384.71875 518.972656 384.667969 508.675781 L 384.667969 508.636719 C 384.617188 498.320312 386.417969 488.078125 389.984375 478.398438 L 390.050781 478.214844 C 393.601562 468.578125 398.785156 459.625 405.382812 451.753906 C 411.976562 443.882812 419.90625 437.238281 428.808594 432.125 L 429.125 431.945312 C 438.046875 426.816406 447.808594 423.300781 457.953125 421.558594 C 468.101562 419.816406 478.476562 419.84375 488.613281 421.636719 L 488.625 421.636719 C 498.765625 423.429688 508.519531 426.988281 517.4375 432.144531 L 517.753906 432.332031 C 526.671875 437.488281 534.617188 444.167969 541.230469 452.066406 Z M 541.230469 452.066406 " clip-rule="nonzero"/></clipPath><clipPath id="2ab2bafea3"><path d="M 0.480469 0 L 178 0 L 178 177.839844 L 0.480469 177.839844 Z M 0.480469 0 " clip-rule="nonzero"/></clipPath><clipPath id="aa05b5d0d1"><path d="M 56.257812 -32.496094 L 210.683594 56.828125 L 122.050781 210.058594 L -32.375 120.730469 Z M 56.257812 -32.496094 " clip-rule="nonzero"/></clipPath><clipPath id="435b263942"><path d="M 157.230469 32.066406 L 157.234375 32.074219 C 163.84375 39.96875 169.039062 48.949219 172.589844 58.613281 C 176.136719 68.277344 177.957031 78.488281 177.960938 88.785156 L 177.960938 89.144531 C 177.964844 99.410156 176.160156 109.597656 172.625 119.238281 C 169.089844 128.882812 163.917969 137.839844 157.332031 145.722656 L 157.207031 145.875 C 150.59375 153.789062 142.613281 160.457031 133.644531 165.558594 L 133.609375 165.578125 C 124.660156 170.667969 114.890625 174.160156 104.746094 175.902344 C 94.597656 177.644531 84.222656 177.617188 74.085938 175.824219 L 74.074219 175.824219 C 63.929688 174.03125 54.179688 170.472656 45.261719 165.316406 L 44.941406 165.128906 C 36.027344 159.972656 28.082031 153.292969 21.46875 145.394531 L 21.460938 145.386719 C 14.851562 137.492188 9.660156 128.511719 6.109375 118.847656 C 2.558594 109.183594 0.71875 98.972656 0.667969 88.675781 L 0.667969 88.636719 C 0.617188 78.320312 2.417969 68.078125 5.984375 58.398438 L 6.050781 58.214844 C 9.601562 48.578125 14.785156 39.625 21.382812 31.753906 C 27.976562 23.882812 35.90625 17.238281 44.808594 12.125 L 45.125 11.945312 C 54.046875 6.816406 63.808594 3.300781 73.953125 1.558594 C 84.101562 -0.183594 94.476562 -0.15625 104.613281 1.636719 L 104.625 1.636719 C 114.765625 3.429688 124.519531 6.988281 133.4375 12.144531 L 133.753906 12.332031 C 142.671875 17.488281 150.617188 24.167969 157.230469 32.066406 Z M 157.230469 32.066406 " clip-rule="nonzero"/></clipPath><clipPath id="45f3915b1d"><rect x="0" width="178" y="0" height="178"/></clipPath><clipPath id="dce7d6b3cf"><path d="M 263 417 L 928 417 L 928 1082 L 263 1082 Z M 263 417 " clip-rule="nonzero"/></clipPath><clipPath id="384d2ad289"><path d="M 831.082031 386.199219 L 958.839844 513.957031 L 359.484375 1113.3125 L 231.726562 985.554688 Z M 831.082031 386.199219 " clip-rule="nonzero"/></clipPath><clipPath id="df62b82906"><path d="M 905.8125 566.984375 L 412.988281 1059.808594 C 398.921875 1073.871094 379.847656 1081.773438 359.960938 1081.773438 C 340.070312 1081.773438 320.996094 1073.871094 306.929688 1059.808594 L 285.230469 1038.109375 C 271.167969 1024.042969 263.265625 1004.96875 263.265625 985.078125 C 263.265625 965.191406 271.167969 946.117188 285.230469 932.050781 L 778.054688 439.226562 C 792.121094 425.164062 811.195312 417.261719 831.082031 417.261719 C 850.972656 417.261719 870.046875 425.164062 884.113281 439.226562 L 905.8125 460.925781 C 919.875 474.992188 927.777344 494.066406 927.777344 513.957031 C 927.777344 533.84375 919.875 552.921875 905.8125 566.984375 Z M 905.8125 566.984375 " clip-rule="nonzero"/></clipPath><clipPath id="21ba25396e"><path d="M 0.0390625 0.121094 L 664.839844 0.121094 L 664.839844 664.917969 L 0.0390625 664.917969 Z M 0.0390625 0.121094 " clip-rule="nonzero"/></clipPath><clipPath id="757ee713b2"><path d="M 568.082031 -30.800781 L 695.839844 96.957031 L 96.484375 696.3125 L -31.273438 568.554688 Z M 568.082031 -30.800781 " clip-rule="nonzero"/></clipPath><clipPath id="d35a2b7319"><path d="M 642.8125 149.984375 L 149.988281 642.808594 C 135.921875 656.871094 116.847656 664.773438 96.960938 664.773438 C 77.070312 664.773438 57.996094 656.871094 43.929688 642.808594 L 22.230469 621.109375 C 8.167969 607.042969 0.265625 587.96875 0.265625 568.078125 C 0.265625 548.191406 8.167969 529.117188 22.230469 515.050781 L 515.054688 22.226562 C 529.121094 8.164062 548.195312 0.261719 568.082031 0.261719 C 587.972656 0.261719 607.046875 8.164062 621.113281 22.226562 L 642.8125 43.925781 C 656.875 57.992188 664.777344 77.066406 664.777344 96.957031 C 664.777344 116.84375 656.875 135.921875 642.8125 149.984375 Z M 642.8125 149.984375 " clip-rule="nonzero"/></clipPath><clipPath id="a4299f28c0"><rect x="0" width="665" y="0" height="665"/></clipPath><clipPath id="22cef434c9"><path d="M 572 418 L 1237 418 L 1237 1083 L 572 1083 Z M 572 418 " clip-rule="nonzero"/></clipPath><clipPath id="6e60dba833"><path d="M 1140.019531 387.160156 L 1267.789062 514.925781 L 668.878906 1113.835938 L 541.109375 986.066406 Z M 1140.019531 387.160156 " clip-rule="nonzero"/></clipPath><clipPath id="295f2d28ab"><path d="M 1193.054688 440.191406 L 1214.753906 461.894531 C 1228.820312 475.957031 1236.722656 495.035156 1236.722656 514.925781 C 1236.722656 534.816406 1228.820312 553.894531 1214.753906 567.957031 L 721.941406 1060.773438 C 707.875 1074.839844 688.800781 1082.738281 668.910156 1082.738281 C 649.015625 1082.738281 629.941406 1074.839844 615.875 1060.773438 L 594.175781 1039.070312 C 580.109375 1025.007812 572.207031 1005.929688 572.207031 986.039062 C 572.207031 966.148438 580.109375 947.070312 594.175781 933.003906 L 1086.988281 440.191406 C 1101.054688 426.125 1120.128906 418.222656 1140.019531 418.222656 C 1159.914062 418.222656 1178.988281 426.125 1193.054688 440.191406 Z M 1193.054688 440.191406 " clip-rule="nonzero"/></clipPath><clipPath id="30ac06a6a1"><path d="M 0.160156 0.078125 L 664.960938 0.078125 L 664.960938 664.878906 L 0.160156 664.878906 Z M 0.160156 0.078125 " clip-rule="nonzero"/></clipPath><clipPath id="780e30a355"><path d="M 568.019531 -30.839844 L 695.789062 96.925781 L 96.878906 695.835938 L -30.890625 568.066406 Z M 568.019531 -30.839844 " clip-rule="nonzero"/></clipPath><clipPath id="423e75ead1"><path d="M 621.054688 22.191406 L 642.753906 43.894531 C 656.820312 57.957031 664.722656 77.035156 664.722656 96.925781 C 664.722656 116.816406 656.820312 135.894531 642.753906 149.957031 L 149.941406 642.773438 C 135.875 656.839844 116.800781 664.738281 96.910156 664.738281 C 77.015625 664.738281 57.941406 656.839844 43.875 642.773438 L 22.175781 621.070312 C 8.109375 607.007812 0.207031 587.929688 0.207031 568.039062 C 0.207031 548.148438 8.109375 529.070312 22.175781 515.003906 L 514.988281 22.191406 C 529.054688 8.125 548.128906 0.222656 568.019531 0.222656 C 587.914062 0.222656 606.988281 8.125 621.054688 22.191406 Z M 621.054688 22.191406 " clip-rule="nonzero"/></clipPath><clipPath id="e79c352a65"><rect x="0" width="665" y="0" height="665"/></clipPath></defs><g clip-path="url(#bd66fa4f7b)"><g clip-path="url(#1b3133d1d0)"><g transform="matrix(1, 0, 0, 1, 150, 150)"><g clip-path="url(#80ae7f4564)"><g clip-path="url(#20bb4f8a16)"><g clip-path="url(#9f5c2f3c13)"><rect x="-480" fill="url(#f2741b5cce)" width="2160" height="2159.999904" y="-479.999985"/></g></g></g></g></g></g><g clip-path="url(#da11822087)"><g clip-path="url(#314bd753e6)"><g clip-path="url(#eaa7b6a491)"><g transform="matrix(1, 0, 0, 1, 938, 903)"><g clip-path="url(#24a76bbf26)"><g clip-path="url(#3446a1798c)"><g clip-path="url(#7c5603b479)"><g clip-path="url(#6b18c1c862)"><path fill="#ffffff" d="M 55.152344 -32.675781 L 210.84375 57.382812 L 122.171875 210.679688 L -33.519531 120.621094 Z M 55.152344 -32.675781 " fill-opacity="1" fill-rule="nonzero"/></g></g></g></g></g></g></g></g><g clip-path="url(#d17b80d164)"><g clip-path="url(#c587a1d04d)"><g clip-path="url(#07f0b9e2ef)"><g transform="matrix(1, 0, 0, 1, 384, 420)"><g clip-path="url(#45f3915b1d)"><g clip-path="url(#2ab2bafea3)"><g clip-path="url(#aa05b5d0d1)"><g clip-path="url(#435b263942)"><path fill="#ffffff" d="M 55.660156 -32.84375 L 211.28125 57.175781 L 122.648438 210.402344 L -32.972656 120.386719 Z M 55.660156 -32.84375 " fill-opacity="1" fill-rule="nonzero"/></g></g></g></g></g></g></g></g><g clip-path="url(#dce7d6b3cf)"><g clip-path="url(#384d2ad289)"><g clip-path="url(#df62b82906)"><g transform="matrix(1, 0, 0, 1, 263, 417)"><g clip-path="url(#a4299f28c0)"><g clip-path="url(#21ba25396e)"><g clip-path="url(#757ee713b2)"><g clip-path="url(#d35a2b7319)"><path fill="#ffffff" d="M 568.082031 -30.800781 L 695.839844 96.957031 L 96.984375 695.8125 L -30.773438 568.058594 Z M 568.082031 -30.800781 " fill-opacity="1" fill-rule="nonzero"/></g></g></g></g></g></g></g></g><g clip-path="url(#22cef434c9)"><g clip-path="url(#6e60dba833)"><g clip-path="url(#295f2d28ab)"><g transform="matrix(1, 0, 0, 1, 572, 418)"><g clip-path="url(#e79c352a65)"><g clip-path="url(#30ac06a6a1)"><g clip-path="url(#780e30a355)"><g clip-path="url(#423e75ead1)"><path fill="#ffffff" d="M 568.019531 -30.839844 L 695.789062 96.925781 L 96.878906 695.835938 L -30.890625 568.066406 Z M 568.019531 -30.839844 " fill-opacity="1" fill-rule="nonzero"/></g></g></g></g></g></g></g></g></svg>