<svg xmlns="http://www.w3.org/2000/svg" xmlns:xlink="http://www.w3.org/1999/xlink" width="2000" zoomAndPan="magnify" viewBox="0 0 1500 1499.999933" height="2000" preserveAspectRatio="xMidYMid meet" version="1.0"><defs><clipPath id="99717ff005"><path d="M 150 150 L 1350 150 L 1350 1350 L 150 1350 Z M 150 150 " clip-rule="nonzero"/></clipPath><clipPath id="ff163d1afe"><path d="M 750 150 C 418.628906 150 150 418.628906 150 750 C 150 1081.371094 418.628906 1350 750 1350 C 1081.371094 1350 1350 1081.371094 1350 750 C 1350 418.628906 1081.371094 150 750 150 Z M 750 150 " clip-rule="nonzero"/></clipPath><clipPath id="e1245813bb"><path d="M 0 0 L 1200 0 L 1200 1200 L 0 1200 Z M 0 0 " clip-rule="nonzero"/></clipPath><clipPath id="d5080dc7ac"><path d="M 600 0 C 268.628906 0 0 268.628906 0 600 C 0 931.371094 268.628906 1200 600 1200 C 931.371094 1200 1200 931.371094 1200 600 C 1200 268.628906 931.371094 0 600 0 Z M 600 0 " clip-rule="nonzero"/></clipPath><linearGradient x1="0" gradientTransform="matrix(4.6875, 0, 0, 4.6875, 0.00002043, -0.00003292)" y1="128" x2="256" gradientUnits="userSpaceOnUse" y2="128" id="0e6ee0a345"><stop stop-opacity="1" stop-color="rgb(1.959229%, 58.81958%, 41.178894%)" offset="0"/><stop stop-opacity="1" stop-color="rgb(1.953125%, 58.634949%, 41.069031%)" offset="0.03125"/><stop stop-opacity="1" stop-color="rgb(1.940918%, 58.267212%, 40.847778%)" offset="0.0625"/><stop stop-opacity="1" stop-color="rgb(1.928711%, 57.899475%, 40.626526%)" offset="0.09375"/><stop stop-opacity="1" stop-color="rgb(1.916504%, 57.531738%, 40.406799%)" offset="0.125"/><stop stop-opacity="1" stop-color="rgb(1.904297%, 57.165527%, 40.185547%)" offset="0.15625"/><stop stop-opacity="1" stop-color="rgb(1.89209%, 56.797791%, 39.96582%)" offset="0.1875"/><stop stop-opacity="1" stop-color="rgb(1.879883%, 56.430054%, 39.744568%)" offset="0.21875"/><stop stop-opacity="1" stop-color="rgb(1.867676%, 56.062317%, 39.524841%)" offset="0.25"/><stop stop-opacity="1" stop-color="rgb(1.855469%, 55.69458%, 39.303589%)" offset="0.28125"/><stop stop-opacity="1" stop-color="rgb(1.843262%, 55.326843%, 39.082336%)" offset="0.3125"/><stop stop-opacity="1" stop-color="rgb(1.831055%, 54.959106%, 38.86261%)" offset="0.34375"/><stop stop-opacity="1" stop-color="rgb(1.818848%, 54.592896%, 38.641357%)" offset="0.375"/><stop stop-opacity="1" stop-color="rgb(1.806641%, 54.225159%, 38.421631%)" offset="0.40625"/><stop stop-opacity="1" stop-color="rgb(1.794434%, 53.857422%, 38.200378%)" offset="0.4375"/><stop stop-opacity="1" stop-color="rgb(1.782227%, 53.489685%, 37.979126%)" offset="0.46875"/><stop stop-opacity="1" stop-color="rgb(1.77002%, 53.121948%, 37.759399%)" offset="0.5"/><stop stop-opacity="1" stop-color="rgb(1.757812%, 52.754211%, 37.538147%)" offset="0.53125"/><stop stop-opacity="1" stop-color="rgb(1.745605%, 52.388%, 37.31842%)" offset="0.5625"/><stop stop-opacity="1" stop-color="rgb(1.733398%, 52.020264%, 37.097168%)" offset="0.59375"/><stop stop-opacity="1" stop-color="rgb(1.721191%, 51.652527%, 36.875916%)" offset="0.625"/><stop stop-opacity="1" stop-color="rgb(1.708984%, 51.28479%, 36.656189%)" offset="0.65625"/><stop stop-opacity="1" stop-color="rgb(1.696777%, 50.917053%, 36.434937%)" offset="0.6875"/><stop stop-opacity="1" stop-color="rgb(1.68457%, 50.549316%, 36.21521%)" offset="0.71875"/><stop stop-opacity="1" stop-color="rgb(1.672363%, 50.183105%, 35.993958%)" offset="0.75"/><stop stop-opacity="1" stop-color="rgb(1.660156%, 49.815369%, 35.774231%)" offset="0.78125"/><stop stop-opacity="1" stop-color="rgb(1.647949%, 49.447632%, 35.552979%)" offset="0.8125"/><stop stop-opacity="1" stop-color="rgb(1.635742%, 49.079895%, 35.331726%)" offset="0.84375"/><stop stop-opacity="1" stop-color="rgb(1.623535%, 48.712158%, 35.112%)" offset="0.875"/><stop stop-opacity="1" stop-color="rgb(1.611328%, 48.344421%, 34.890747%)" offset="0.90625"/><stop stop-opacity="1" stop-color="rgb(1.599121%, 47.976685%, 34.671021%)" offset="0.9375"/><stop stop-opacity="1" stop-color="rgb(1.586914%, 47.610474%, 34.449768%)" offset="0.96875"/><stop stop-opacity="1" stop-color="rgb(1.574707%, 47.242737%, 34.228516%)" offset="1"/></linearGradient><clipPath id="f0f20ab558"><rect x="0" width="1200" y="0" height="1200"/></clipPath><clipPath id="576c8c53b8"><path d="M 789 448 L 988 448 L 988 646 L 789 646 Z M 789 448 " clip-rule="nonzero"/></clipPath><clipPath id="fb0aa23a56"><path d="M 851.820312 412.375 L 1023.898438 511.910156 L 925.132812 682.65625 L 753.054688 583.117188 Z M 851.820312 412.375 " clip-rule="nonzero"/></clipPath><clipPath id="a6d3443f79"><path d="M 964.28125 484.285156 L 964.285156 484.292969 C 971.648438 493.089844 977.433594 503.09375 981.382812 513.863281 C 985.335938 524.628906 987.359375 536.003906 987.359375 547.472656 L 987.359375 547.875 C 987.363281 559.316406 985.347656 570.667969 981.410156 581.410156 C 977.472656 592.15625 971.707031 602.136719 964.371094 610.921875 L 964.230469 611.089844 C 956.859375 619.914062 947.96875 627.34375 937.976562 633.027344 L 937.9375 633.050781 C 927.96875 638.722656 917.089844 642.617188 905.785156 644.558594 C 894.480469 646.503906 882.921875 646.476562 871.628906 644.480469 L 871.617188 644.476562 C 860.320312 642.480469 849.457031 638.519531 839.527344 632.777344 L 839.171875 632.570312 C 829.238281 626.824219 820.390625 619.382812 813.023438 610.585938 L 813.019531 610.578125 C 805.65625 601.78125 799.871094 591.777344 795.921875 581.011719 C 791.96875 570.242188 789.921875 558.871094 789.867188 547.398438 L 789.867188 547.351562 C 789.8125 535.859375 791.820312 524.445312 795.792969 513.660156 L 795.871094 513.453125 C 799.824219 502.714844 805.605469 492.738281 812.957031 483.96875 C 820.304688 475.199219 829.136719 467.792969 839.058594 462.089844 L 839.40625 461.890625 C 849.347656 456.175781 860.21875 452.257812 871.523438 450.3125 C 882.828125 448.371094 894.382812 448.394531 905.679688 450.390625 L 905.6875 450.394531 C 916.984375 452.390625 927.847656 456.351562 937.78125 462.097656 L 938.136719 462.300781 C 948.066406 468.046875 956.917969 475.488281 964.28125 484.285156 Z M 964.28125 484.285156 " clip-rule="nonzero"/></clipPath><clipPath id="052c836836"><path d="M 0.71875 0.320312 L 198.480469 0.320312 L 198.480469 198 L 0.71875 198 Z M 0.71875 0.320312 " clip-rule="nonzero"/></clipPath><clipPath id="be62f1fd16"><path d="M 62.820312 -35.625 L 234.898438 63.910156 L 136.132812 234.65625 L -35.945312 135.117188 Z M 62.820312 -35.625 " clip-rule="nonzero"/></clipPath><clipPath id="a83586ce3b"><path d="M 175.28125 36.285156 L 175.285156 36.292969 C 182.648438 45.089844 188.433594 55.09375 192.382812 65.863281 C 196.335938 76.628906 198.359375 88.003906 198.359375 99.472656 L 198.359375 99.875 C 198.363281 111.316406 196.347656 122.667969 192.410156 133.410156 C 188.472656 144.15625 182.707031 154.136719 175.371094 162.921875 L 175.230469 163.089844 C 167.859375 171.914062 158.96875 179.34375 148.976562 185.027344 L 148.9375 185.050781 C 138.96875 190.722656 128.089844 194.617188 116.785156 196.558594 C 105.480469 198.503906 93.921875 198.476562 82.628906 196.480469 L 82.617188 196.476562 C 71.320312 194.480469 60.457031 190.519531 50.527344 184.777344 L 50.171875 184.570312 C 40.238281 178.824219 31.390625 171.382812 24.023438 162.585938 L 24.019531 162.578125 C 16.65625 153.78125 10.871094 143.777344 6.921875 133.011719 C 2.96875 122.242188 0.921875 110.871094 0.867188 99.398438 L 0.867188 99.351562 C 0.8125 87.859375 2.820312 76.445312 6.792969 65.660156 L 6.871094 65.453125 C 10.824219 54.714844 16.605469 44.738281 23.957031 35.96875 C 31.304688 27.199219 40.136719 19.792969 50.058594 14.089844 L 50.40625 13.890625 C 60.347656 8.175781 71.21875 4.257812 82.523438 2.3125 C 93.828125 0.371094 105.382812 0.394531 116.679688 2.390625 L 116.6875 2.394531 C 127.984375 4.390625 138.847656 8.351562 148.78125 14.097656 L 149.136719 14.300781 C 159.066406 20.046875 167.917969 27.488281 175.28125 36.285156 Z M 175.28125 36.285156 " clip-rule="nonzero"/></clipPath><clipPath id="dde9825060"><rect x="0" width="199" y="0" height="198"/></clipPath><clipPath id="0dfbd41914"><path d="M 38 37 L 237 37 L 237 235 L 38 235 Z M 38 37 " clip-rule="nonzero"/></clipPath><clipPath id="bb349ffff2"><path d="M 100.675781 1.210938 L 272.679688 100.703125 L 173.957031 271.371094 L 1.957031 171.878906 Z M 100.675781 1.210938 " clip-rule="nonzero"/></clipPath><clipPath id="aebaeb4177"><path d="M 213.140625 73.121094 L 213.148438 73.128906 C 220.507812 81.921875 226.292969 91.925781 230.246094 102.691406 C 234.199219 113.453125 236.226562 124.828125 236.230469 136.292969 L 236.230469 136.695312 C 236.234375 148.132812 234.222656 159.476562 230.289062 170.214844 C 226.351562 180.957031 220.589844 190.933594 213.253906 199.714844 L 213.113281 199.882812 C 205.746094 208.699219 196.859375 216.125 186.871094 221.804688 L 186.832031 221.828125 C 176.863281 227.496094 165.984375 231.386719 154.679688 233.328125 C 143.378906 235.269531 131.824219 235.238281 120.53125 233.242188 L 120.519531 233.242188 C 109.222656 231.242188 98.359375 227.28125 88.429688 221.535156 L 88.074219 221.332031 C 78.140625 215.585938 69.292969 208.144531 61.925781 199.347656 L 61.921875 199.339844 C 54.558594 190.546875 48.773438 180.546875 44.820312 169.777344 C 40.867188 159.015625 38.816406 147.644531 38.757812 136.175781 L 38.757812 136.132812 C 38.703125 124.640625 40.707031 113.234375 44.679688 102.449219 L 44.753906 102.246094 C 48.707031 91.511719 54.484375 81.539062 61.832031 72.773438 C 69.175781 64.007812 78.011719 56.609375 87.925781 50.910156 L 88.273438 50.710938 C 98.214844 44.996094 109.085938 41.082031 120.386719 39.140625 C 131.6875 37.199219 143.242188 37.230469 154.535156 39.226562 L 154.546875 39.230469 C 165.84375 41.226562 176.707031 45.1875 186.636719 50.933594 L 186.992188 51.140625 C 196.925781 56.882812 205.773438 64.324219 213.140625 73.121094 Z M 213.140625 73.121094 " clip-rule="nonzero"/></clipPath><clipPath id="b043da8014"><path d="M 0.519531 0.199219 L 198.28125 0.199219 L 198.28125 198 L 0.519531 198 Z M 0.519531 0.199219 " clip-rule="nonzero"/></clipPath><clipPath id="09f5b87ec3"><path d="M 62.675781 -35.789062 L 234.679688 63.703125 L 135.957031 234.371094 L -36.042969 134.878906 Z M 62.675781 -35.789062 " clip-rule="nonzero"/></clipPath><clipPath id="69af4453ec"><path d="M 175.140625 36.121094 L 175.148438 36.128906 C 182.507812 44.921875 188.292969 54.925781 192.246094 65.691406 C 196.199219 76.453125 198.226562 87.828125 198.230469 99.292969 L 198.230469 99.695312 C 198.234375 111.132812 196.222656 122.476562 192.289062 133.214844 C 188.351562 143.957031 182.589844 153.933594 175.253906 162.714844 L 175.113281 162.882812 C 167.746094 171.699219 158.859375 179.125 148.871094 184.804688 L 148.832031 184.828125 C 138.863281 190.496094 127.984375 194.386719 116.679688 196.328125 C 105.378906 198.269531 93.824219 198.238281 82.53125 196.242188 L 82.519531 196.242188 C 71.222656 194.242188 60.359375 190.28125 50.429688 184.535156 L 50.074219 184.332031 C 40.140625 178.585938 31.292969 171.144531 23.925781 162.347656 L 23.921875 162.339844 C 16.558594 153.546875 10.773438 143.546875 6.820312 132.777344 C 2.867188 122.015625 0.816406 110.644531 0.757812 99.175781 L 0.757812 99.132812 C 0.703125 87.640625 2.707031 76.234375 6.679688 65.449219 L 6.753906 65.246094 C 10.707031 54.511719 16.484375 44.539062 23.832031 35.773438 C 31.175781 27.007812 40.011719 19.609375 49.925781 13.910156 L 50.273438 13.710938 C 60.214844 7.996094 71.085938 4.082031 82.386719 2.140625 C 93.6875 0.199219 105.242188 0.230469 116.535156 2.226562 L 116.546875 2.230469 C 127.84375 4.226562 138.707031 8.1875 148.636719 13.933594 L 148.992188 14.140625 C 158.925781 19.882812 167.773438 27.324219 175.140625 36.121094 Z M 175.140625 36.121094 " clip-rule="nonzero"/></clipPath><clipPath id="e42f4bde1c"><rect x="0" width="199" y="0" height="198"/></clipPath><clipPath id="05cf084173"><path d="M 32 31 L 653 31 L 653 653 L 32 653 Z M 32 31 " clip-rule="nonzero"/></clipPath><clipPath id="5753f5fc05"><path d="M 541.277344 0.824219 L 683.574219 143.121094 L 143.289062 683.40625 L 0.992188 541.105469 Z M 541.277344 0.824219 " clip-rule="nonzero"/></clipPath><clipPath id="2d84d3838a"><path d="M 630.546875 196.148438 L 196.558594 630.136719 C 182.492188 644.199219 163.417969 652.101562 143.527344 652.101562 C 123.640625 652.101562 104.566406 644.199219 90.5 630.136719 L 54.261719 593.894531 C 40.195312 579.832031 32.296875 560.757812 32.296875 540.867188 C 32.296875 520.976562 40.195312 501.902344 54.261719 487.839844 L 488.25 53.851562 C 502.3125 39.789062 521.386719 31.886719 541.277344 31.886719 C 561.164062 31.886719 580.242188 39.789062 594.304688 53.851562 L 630.546875 90.089844 C 644.609375 104.15625 652.511719 123.230469 652.511719 143.121094 C 652.511719 163.007812 644.609375 182.085938 630.546875 196.148438 Z M 630.546875 196.148438 " clip-rule="nonzero"/></clipPath><clipPath id="87f7247939"><path d="M 0.28125 0.679688 L 620.679688 0.679688 L 620.679688 621.320312 L 0.28125 621.320312 Z M 0.28125 0.679688 " clip-rule="nonzero"/></clipPath><clipPath id="459d6792df"><path d="M 509.277344 -30.175781 L 651.574219 112.121094 L 111.289062 652.40625 L -31.007812 510.105469 Z M 509.277344 -30.175781 " clip-rule="nonzero"/></clipPath><clipPath id="efc9961d4b"><path d="M 598.546875 165.148438 L 164.558594 599.136719 C 150.492188 613.199219 131.417969 621.101562 111.527344 621.101562 C 91.640625 621.101562 72.566406 613.199219 58.5 599.136719 L 22.261719 562.894531 C 8.195312 548.832031 0.296875 529.757812 0.296875 509.867188 C 0.296875 489.976562 8.195312 470.902344 22.261719 456.839844 L 456.25 22.851562 C 470.3125 8.789062 489.386719 0.886719 509.277344 0.886719 C 529.164062 0.886719 548.242188 8.789062 562.304688 22.851562 L 598.546875 59.089844 C 612.609375 73.15625 620.511719 92.230469 620.511719 112.121094 C 620.511719 132.007812 612.609375 151.085938 598.546875 165.148438 Z M 598.546875 165.148438 " clip-rule="nonzero"/></clipPath><clipPath id="b3bda769bc"><rect x="0" width="621" y="0" height="622"/></clipPath><clipPath id="66a8f1a4fe"><path d="M 373 31 L 994 31 L 994 653 L 373 653 Z M 373 31 " clip-rule="nonzero"/></clipPath><clipPath id="90ed5c519d"><path d="M 882.453125 0.824219 L 1024.75 143.121094 L 484.464844 683.40625 L 342.167969 541.105469 Z M 882.453125 0.824219 " clip-rule="nonzero"/></clipPath><clipPath id="8aedc36207"><path d="M 971.722656 196.148438 L 537.734375 630.136719 C 523.671875 644.199219 504.59375 652.101562 484.707031 652.101562 C 464.816406 652.101562 445.742188 644.199219 431.675781 630.136719 L 395.4375 593.894531 C 381.375 579.832031 373.472656 560.757812 373.472656 540.867188 C 373.472656 520.976562 381.375 501.902344 395.4375 487.839844 L 829.425781 53.851562 C 843.488281 39.789062 862.5625 31.886719 882.453125 31.886719 C 902.34375 31.886719 921.417969 39.789062 935.480469 53.851562 L 971.722656 90.089844 C 985.785156 104.15625 993.6875 123.230469 993.6875 143.121094 C 993.6875 163.007812 985.785156 182.085938 971.722656 196.148438 Z M 971.722656 196.148438 " clip-rule="nonzero"/></clipPath><clipPath id="a1357eca8f"><path d="M 0.320312 0.679688 L 620.71875 0.679688 L 620.71875 621.320312 L 0.320312 621.320312 Z M 0.320312 0.679688 " clip-rule="nonzero"/></clipPath><clipPath id="6576db8792"><path d="M 509.453125 -30.175781 L 651.75 112.121094 L 111.464844 652.40625 L -30.832031 510.105469 Z M 509.453125 -30.175781 " clip-rule="nonzero"/></clipPath><clipPath id="4de87be66e"><path d="M 598.722656 165.148438 L 164.734375 599.136719 C 150.671875 613.199219 131.59375 621.101562 111.707031 621.101562 C 91.816406 621.101562 72.742188 613.199219 58.675781 599.136719 L 22.4375 562.894531 C 8.375 548.832031 0.472656 529.757812 0.472656 509.867188 C 0.472656 489.976562 8.375 470.902344 22.4375 456.839844 L 456.425781 22.851562 C 470.488281 8.789062 489.5625 0.886719 509.453125 0.886719 C 529.34375 0.886719 548.417969 8.789062 562.480469 22.851562 L 598.722656 59.089844 C 612.785156 73.15625 620.6875 92.230469 620.6875 112.121094 C 620.6875 132.007812 612.785156 151.085938 598.722656 165.148438 Z M 598.722656 165.148438 " clip-rule="nonzero"/></clipPath><clipPath id="be30e91a05"><rect x="0" width="621" y="0" height="622"/></clipPath><clipPath id="ce119c3ffa"><rect x="0" width="1026" y="0" height="684"/></clipPath></defs><g clip-path="url(#99717ff005)"><g clip-path="url(#ff163d1afe)"><g transform="matrix(1, 0, 0, 1, 150, 150)"><g clip-path="url(#f0f20ab558)"><g clip-path="url(#e1245813bb)"><g clip-path="url(#d5080dc7ac)"><rect x="-480" fill="url(#0e6ee0a345)" width="2160" height="2159.999904" y="-479.999985"/></g></g></g></g></g></g><g transform="matrix(1, 0, 0, 1, 237, 408)"><g clip-path="url(#ce119c3ffa)"><g clip-path="url(#576c8c53b8)"><g clip-path="url(#fb0aa23a56)"><g clip-path="url(#a6d3443f79)"><g transform="matrix(1, 0, 0, 1, 789, 448)"><g clip-path="url(#dde9825060)"><g clip-path="url(#052c836836)"><g clip-path="url(#be62f1fd16)"><g clip-path="url(#a83586ce3b)"><path fill="#ffffff" d="M 62.152344 -36.011719 L 235.566406 64.296875 L 136.800781 235.042969 L -36.613281 134.730469 Z M 62.152344 -36.011719 " fill-opacity="1" fill-rule="nonzero"/></g></g></g></g></g></g></g></g><g clip-path="url(#0dfbd41914)"><g clip-path="url(#bb349ffff2)"><g clip-path="url(#aebaeb4177)"><g transform="matrix(1, 0, 0, 1, 38, 37)"><g clip-path="url(#e42f4bde1c)"><g clip-path="url(#b043da8014)"><g clip-path="url(#09f5b87ec3)"><g clip-path="url(#69af4453ec)"><path fill="#ffffff" d="M 62.011719 -36.175781 L 235.34375 64.089844 L 136.625 234.753906 L -36.710938 134.492188 Z M 62.011719 -36.175781 " fill-opacity="1" fill-rule="nonzero"/></g></g></g></g></g></g></g></g><g clip-path="url(#05cf084173)"><g clip-path="url(#5753f5fc05)"><g clip-path="url(#2d84d3838a)"><g transform="matrix(1, 0, 0, 1, 32, 31)"><g clip-path="url(#b3bda769bc)"><g clip-path="url(#87f7247939)"><g clip-path="url(#459d6792df)"><g clip-path="url(#efc9961d4b)"><path fill="#ffffff" d="M 509.277344 -30.175781 L 651.574219 112.121094 L 111.289062 652.40625 L -31.007812 510.105469 Z M 509.277344 -30.175781 " fill-opacity="1" fill-rule="nonzero"/></g></g></g></g></g></g></g></g><g clip-path="url(#66a8f1a4fe)"><g clip-path="url(#90ed5c519d)"><g clip-path="url(#8aedc36207)"><g transform="matrix(1, 0, 0, 1, 373, 31)"><g clip-path="url(#be30e91a05)"><g clip-path="url(#a1357eca8f)"><g clip-path="url(#6576db8792)"><g clip-path="url(#4de87be66e)"><path fill="#ffffff" d="M 509.453125 -30.175781 L 651.75 112.121094 L 111.464844 652.40625 L -30.832031 510.105469 Z M 509.453125 -30.175781 " fill-opacity="1" fill-rule="nonzero"/></g></g></g></g></g></g></g></g></g></g></svg>