<svg xmlns="http://www.w3.org/2000/svg" xmlns:xlink="http://www.w3.org/1999/xlink" width="2500" zoomAndPan="magnify" viewBox="0 0 1874.88 468.749983" height="625" preserveAspectRatio="xMidYMid meet" version="1.0"><defs><g/><clipPath id="4a01e42af5"><rect x="0" width="1806" y="0" height="453"/></clipPath></defs><g transform="matrix(1, 0, 0, 1, 22, 0)"><g clip-path="url(#4a01e42af5)"><g fill="#545454" fill-opacity="1"><g transform="translate(0.185222, 356.670334)"><g><path d="M 151.15625 4.0625 C 125.507812 4.0625 102.535156 -1.800781 82.234375 -13.53125 C 61.941406 -25.257812 45.960938 -42.140625 34.296875 -64.171875 C 22.640625 -86.210938 16.8125 -112.757812 16.8125 -143.8125 C 16.8125 -175 22.675781 -201.640625 34.40625 -223.734375 C 46.132812 -245.835938 62.175781 -262.753906 82.53125 -274.484375 C 102.894531 -286.210938 125.769531 -292.078125 151.15625 -292.078125 C 167.65625 -292.078125 183.023438 -289.753906 197.265625 -285.109375 C 211.503906 -280.472656 224.097656 -273.707031 235.046875 -264.8125 C 246.003906 -255.925781 254.992188 -245.101562 262.015625 -232.34375 C 269.035156 -219.582031 273.644531 -205.085938 275.84375 -188.859375 L 216.109375 -188.859375 C 214.691406 -196.847656 212.113281 -204 208.375 -210.3125 C 204.632812 -216.625 199.992188 -221.96875 194.453125 -226.34375 C 188.910156 -230.726562 182.597656 -234.046875 175.515625 -236.296875 C 168.429688 -238.554688 160.695312 -239.6875 152.3125 -239.6875 C 137.113281 -239.6875 123.8125 -235.882812 112.40625 -228.28125 C 101 -220.675781 92.203125 -209.753906 86.015625 -195.515625 C 79.828125 -181.273438 76.734375 -164.039062 76.734375 -143.8125 C 76.734375 -123.320312 79.859375 -105.957031 86.109375 -91.71875 C 92.359375 -77.476562 101.15625 -66.6875 112.5 -59.34375 C 123.84375 -52 137.113281 -48.328125 152.3125 -48.328125 C 160.5625 -48.328125 168.226562 -49.484375 175.3125 -51.796875 C 182.40625 -54.117188 188.753906 -57.4375 194.359375 -61.75 C 199.960938 -66.070312 204.632812 -71.390625 208.375 -77.703125 C 212.113281 -84.015625 214.753906 -91.164062 216.296875 -99.15625 L 276.03125 -99.15625 C 274.226562 -85.113281 270.070312 -71.90625 263.5625 -59.53125 C 257.050781 -47.164062 248.414062 -36.179688 237.65625 -26.578125 C 226.894531 -16.972656 214.265625 -9.460938 199.765625 -4.046875 C 185.273438 1.355469 169.070312 4.0625 151.15625 4.0625 Z M 151.15625 4.0625 "/></g></g></g><g fill="#545454" fill-opacity="1"><g transform="translate(279.20197, 356.670334)"><g><path d="M 24.9375 0 L 24.9375 -288.015625 L 114.8125 -288.015625 L 161.59375 -155.40625 C 163.53125 -149.226562 165.785156 -141.335938 168.359375 -131.734375 C 170.941406 -122.128906 173.550781 -111.847656 176.1875 -100.890625 C 178.832031 -89.941406 181.28125 -79.34375 183.53125 -69.09375 C 185.789062 -58.851562 187.691406 -50 189.234375 -42.53125 L 176.875 -42.53125 C 178.414062 -49.875 180.3125 -58.632812 182.5625 -68.8125 C 184.820312 -78.988281 187.269531 -89.585938 189.90625 -100.609375 C 192.550781 -111.628906 195.128906 -121.972656 197.640625 -131.640625 C 200.160156 -141.304688 202.453125 -149.226562 204.515625 -155.40625 L 250.515625 -288.015625 L 340.59375 -288.015625 L 340.59375 0 L 281.4375 0 L 281.4375 -136.078125 C 281.4375 -142.390625 281.53125 -150.1875 281.71875 -159.46875 C 281.914062 -168.75 282.175781 -178.734375 282.5 -189.421875 C 282.820312 -200.117188 283.113281 -210.910156 283.375 -221.796875 C 283.632812 -232.691406 283.828125 -242.972656 283.953125 -252.640625 L 288.40625 -252.640625 C 285.820312 -242.078125 283.015625 -231.1875 279.984375 -219.96875 C 276.960938 -208.757812 273.9375 -197.835938 270.90625 -187.203125 C 267.875 -176.578125 265.035156 -166.847656 262.390625 -158.015625 C 259.753906 -149.191406 257.472656 -141.878906 255.546875 -136.078125 L 207.609375 0 L 158.125 0 L 109.59375 -136.078125 C 107.53125 -141.878906 105.175781 -149.160156 102.53125 -157.921875 C 99.894531 -166.679688 97.03125 -176.34375 93.9375 -186.90625 C 90.84375 -197.476562 87.75 -208.367188 84.65625 -219.578125 C 81.570312 -230.796875 78.609375 -241.816406 75.765625 -252.640625 L 81.1875 -252.640625 C 81.3125 -243.359375 81.503906 -233.304688 81.765625 -222.484375 C 82.023438 -211.660156 82.28125 -200.835938 82.53125 -190.015625 C 82.789062 -179.191406 83.050781 -169.109375 83.3125 -159.765625 C 83.570312 -150.421875 83.703125 -142.523438 83.703125 -136.078125 L 83.703125 0 Z M 24.9375 0 "/></g></g></g><g fill="#047857" fill-opacity="1"><g transform="translate(632.064591, 356.670334)"><g><path d="M 24.9375 0 L 24.9375 -288.015625 L 216.875 -288.015625 L 216.875 -238.53125 L 84.078125 -238.53125 L 84.078125 -160.25 L 204.890625 -160.25 L 204.890625 -111.921875 L 84.078125 -111.921875 L 84.078125 0 Z M 24.9375 0 "/></g></g></g><g fill="#047857" fill-opacity="1"><g transform="translate(851.352646, 356.670334)"><g><path d="M 23.78125 0 L 23.78125 -213.40625 L 81.375 -213.40625 L 81.375 0 Z M 52.578125 -241.046875 C 43.691406 -241.046875 36.125 -243.941406 29.875 -249.734375 C 23.625 -255.535156 20.5 -262.625 20.5 -271 C 20.5 -279.375 23.625 -286.460938 29.875 -292.265625 C 36.125 -298.066406 43.691406 -300.96875 52.578125 -300.96875 C 61.472656 -300.96875 69.007812 -298.066406 75.1875 -292.265625 C 81.375 -286.460938 84.46875 -279.375 84.46875 -271 C 84.46875 -262.625 81.375 -255.535156 75.1875 -249.734375 C 69.007812 -243.941406 61.472656 -241.046875 52.578125 -241.046875 Z M 52.578125 -241.046875 "/></g></g></g><g fill="#047857" fill-opacity="1"><g transform="translate(943.837987, 356.670334)"><g><path d="M 81.375 -288.015625 L 81.375 0 L 23.78125 0 L 23.78125 -288.015625 Z M 81.375 -288.015625 "/></g></g></g><g fill="#047857" fill-opacity="1"><g transform="translate(1036.323344, 356.670334)"><g><path d="M 23.78125 0 L 23.78125 -213.40625 L 81.375 -213.40625 L 81.375 0 Z M 52.578125 -241.046875 C 43.691406 -241.046875 36.125 -243.941406 29.875 -249.734375 C 23.625 -255.535156 20.5 -262.625 20.5 -271 C 20.5 -279.375 23.625 -286.460938 29.875 -292.265625 C 36.125 -298.066406 43.691406 -300.96875 52.578125 -300.96875 C 61.472656 -300.96875 69.007812 -298.066406 75.1875 -292.265625 C 81.375 -286.460938 84.46875 -279.375 84.46875 -271 C 84.46875 -262.625 81.375 -255.535156 75.1875 -249.734375 C 69.007812 -243.941406 61.472656 -241.046875 52.578125 -241.046875 Z M 52.578125 -241.046875 "/></g></g></g><g fill="#047857" fill-opacity="1"><g transform="translate(1128.8087, 356.670334)"><g><path d="M 81.375 -122.546875 L 81.375 0 L 23.78125 0 L 23.78125 -213.40625 L 78.671875 -213.40625 L 79.453125 -159.671875 L 74.609375 -159.671875 C 80.410156 -177.703125 89.140625 -191.679688 100.796875 -201.609375 C 112.460938 -211.535156 127.445312 -216.5 145.75 -216.5 C 160.5625 -216.5 173.507812 -213.273438 184.59375 -206.828125 C 195.675781 -200.390625 204.242188 -191.113281 210.296875 -179 C 216.359375 -166.882812 219.390625 -152.320312 219.390625 -135.3125 L 219.390625 0 L 161.796875 0 L 161.796875 -125.0625 C 161.796875 -138.59375 158.378906 -149.125 151.546875 -156.65625 C 144.710938 -164.195312 135.175781 -167.96875 122.9375 -167.96875 C 114.820312 -167.96875 107.640625 -166.195312 101.390625 -162.65625 C 95.140625 -159.113281 90.238281 -153.988281 86.6875 -147.28125 C 83.144531 -140.582031 81.375 -132.335938 81.375 -122.546875 Z M 81.375 -122.546875 "/></g></g></g><g fill="#047857" fill-opacity="1"><g transform="translate(1359.308008, 356.670334)"><g><path d="M 119.84375 85.046875 C 101.539062 85.046875 85.6875 82.660156 72.28125 77.890625 C 58.882812 73.128906 48.0625 66.523438 39.8125 58.078125 C 31.570312 49.640625 26.035156 39.945312 23.203125 29 L 74.03125 18.359375 C 75.832031 22.617188 78.601562 26.613281 82.34375 30.34375 C 86.082031 34.082031 91.007812 37.109375 97.125 39.421875 C 103.25 41.742188 110.757812 42.90625 119.65625 42.90625 C 134.21875 42.90625 145.617188 39.425781 153.859375 32.46875 C 162.109375 25.507812 166.234375 14.816406 166.234375 0.390625 L 166.234375 -37.5 L 162.75 -37.5 C 159.789062 -31.1875 155.734375 -25.351562 150.578125 -20 C 145.421875 -14.65625 138.910156 -10.367188 131.046875 -7.140625 C 123.191406 -3.921875 113.722656 -2.3125 102.640625 -2.3125 C 86.148438 -2.3125 71.265625 -6.273438 57.984375 -14.203125 C 44.710938 -22.128906 34.175781 -33.890625 26.375 -49.484375 C 18.582031 -65.078125 14.6875 -84.34375 14.6875 -107.28125 C 14.6875 -130.863281 18.648438 -150.769531 26.578125 -167 C 34.503906 -183.238281 45.101562 -195.546875 58.375 -203.921875 C 71.644531 -212.304688 86.398438 -216.5 102.640625 -216.5 C 114.109375 -216.5 123.867188 -214.628906 131.921875 -210.890625 C 139.972656 -207.148438 146.671875 -202.378906 152.015625 -196.578125 C 157.367188 -190.785156 161.59375 -184.796875 164.6875 -178.609375 L 166.4375 -178.609375 L 166.4375 -213.40625 L 223.453125 -213.40625 L 223.453125 -3.09375 C 223.453125 16.75 219.003906 33.210938 210.109375 46.296875 C 201.222656 59.378906 189.015625 69.109375 173.484375 75.484375 C 157.953125 81.859375 140.070312 85.046875 119.84375 85.046875 Z M 120.03125 -46.78125 C 129.957031 -46.78125 138.398438 -49.226562 145.359375 -54.125 C 152.316406 -59.019531 157.628906 -66.007812 161.296875 -75.09375 C 164.972656 -84.175781 166.8125 -95.097656 166.8125 -107.859375 C 166.8125 -120.484375 164.972656 -131.46875 161.296875 -140.8125 C 157.628906 -150.15625 152.316406 -157.40625 145.359375 -162.5625 C 138.398438 -167.71875 129.957031 -170.296875 120.03125 -170.296875 C 110.113281 -170.296875 101.707031 -167.65625 94.8125 -162.375 C 87.914062 -157.09375 82.695312 -149.78125 79.15625 -140.4375 C 75.613281 -131.09375 73.84375 -120.234375 73.84375 -107.859375 C 73.84375 -95.359375 75.644531 -84.5 79.25 -75.28125 C 82.863281 -66.070312 88.113281 -59.019531 95 -54.125 C 101.894531 -49.226562 110.238281 -46.78125 120.03125 -46.78125 Z M 120.03125 -46.78125 "/></g></g></g><g fill="#047857" fill-opacity="1"><g transform="translate(1593.673217, 356.670334)"><g><path d="M 109.21875 4.453125 C 91.820312 4.453125 76.390625 1.902344 62.921875 -3.1875 C 49.453125 -8.28125 38.492188 -15.65625 30.046875 -25.3125 C 21.609375 -34.976562 16.296875 -46.578125 14.109375 -60.109375 L 68.421875 -67.46875 C 70.867188 -57.664062 75.570312 -50.25 82.53125 -45.21875 C 89.488281 -40.195312 98.769531 -37.6875 110.375 -37.6875 C 121.320312 -37.6875 129.953125 -39.78125 136.265625 -43.96875 C 142.585938 -48.15625 145.75 -53.472656 145.75 -59.921875 C 145.75 -65.460938 143.457031 -70.003906 138.875 -73.546875 C 134.300781 -77.085938 127.441406 -79.828125 118.296875 -81.765625 L 81.375 -89.109375 C 60.757812 -93.359375 45.296875 -100.570312 34.984375 -110.75 C 24.671875 -120.9375 19.515625 -134.082031 19.515625 -150.1875 C 19.515625 -163.71875 23.21875 -175.441406 30.625 -185.359375 C 38.039062 -195.285156 48.484375 -202.957031 61.953125 -208.375 C 75.421875 -213.789062 91.175781 -216.5 109.21875 -216.5 C 126.476562 -216.5 141.421875 -214.046875 154.046875 -209.140625 C 166.679688 -204.242188 176.832031 -197.285156 184.5 -188.265625 C 192.164062 -179.242188 197.03125 -168.613281 199.09375 -156.375 L 147.484375 -149.21875 C 145.679688 -156.820312 141.65625 -163.039062 135.40625 -167.875 C 129.15625 -172.707031 120.8125 -175.125 110.375 -175.125 C 100.707031 -175.125 92.75 -173.09375 86.5 -169.03125 C 80.25 -164.976562 77.125 -159.726562 77.125 -153.28125 C 77.125 -147.875 79.25 -143.332031 83.5 -139.65625 C 87.757812 -135.988281 94.71875 -133.1875 104.375 -131.25 L 143.046875 -123.515625 C 163.921875 -119.390625 179.414062 -112.554688 189.53125 -103.015625 C 199.644531 -93.484375 204.703125 -81.050781 204.703125 -65.71875 C 204.703125 -51.675781 200.640625 -39.398438 192.515625 -28.890625 C 184.398438 -18.390625 173.15625 -10.207031 158.78125 -4.34375 C 144.414062 1.519531 127.894531 4.453125 109.21875 4.453125 Z M 109.21875 4.453125 "/></g></g></g></g></g></svg>